<svg width="274" height="192" viewBox="0 0 274 192" fill="none" xmlns="http://www.w3.org/2000/svg">
<path d="M99.1525 112.566C99.1525 109.321 97.0124 106.56 96.046 103.453C88.1071 76.4612 75.9573 94.2718 77.545 78.6703C78.8567 65.9682 60.6319 59.8242 59.1131 65.3469C57.9396 69.765 52.1408 72.1812 49.3794 68.4534C45.8587 63.7591 47.2394 57.0629 44.1329 52.1615C42.338 49.3311 38.9554 47.3292 35.4347 47.053C32.2592 46.7769 28.9455 47.7434 25.839 46.915C20.3164 45.3962 17.486 38.769 11.8253 38.0097C11.342 37.9406 10.8588 37.9406 10.3756 38.1477C9.47815 38.4929 9.13298 39.5284 8.92588 40.4258C8.30458 42.842 7.75231 45.5343 9.20201 47.6053C10.5136 49.4692 13.1369 50.2286 14.3795 52.0925C15.6221 53.9564 15.2079 56.4416 14.4485 58.5126C13.6892 60.5836 12.5846 62.7236 12.7227 64.9327C12.8608 68.1082 15.484 70.8695 18.5215 72.1812C21.628 73.5618 25.0797 73.7689 28.5313 73.7689C29.4288 73.7689 30.3262 73.7689 31.1546 74.0451C33.8469 74.9425 34.4682 78.6013 32.7424 80.7413C32.0521 81.5697 31.1546 82.26 30.6714 83.1575C29.3598 85.5736 31.7069 88.5421 34.4682 89.3705C37.2296 90.1298 40.198 89.5086 43.0974 89.1634C45.9968 88.8182 49.2414 88.8873 51.3814 90.6821C54.0737 93.0293 53.7976 97.0332 55.3853 100.209C57.0421 103.591 60.839 105.662 64.7048 106.56C68.5707 107.457 72.5746 107.319 76.5786 107.526C84.9316 107.94 93.2846 109.735 100.464 113.739" fill="#4DC591"/>
<path opacity="0.2" d="M28.9077 85.5643C31.1168 93.089 37.9511 99.44 44.0951 104.41C50.5842 109.657 57.8327 114.006 65.1502 118.148C80.4756 126.846 96.4914 134.923 108.365 147.763C108.71 148.109 109.263 147.625 108.917 147.28C98.4933 135.061 83.6512 127.26 69.4303 119.46C62.2508 115.456 55.0023 111.452 48.3751 106.62C40.9195 101.235 31.9452 94.1935 29.1838 85.4953C29.1148 85.3572 28.8387 85.4263 28.9077 85.5643Z" fill="#444472"/>
<path d="M204.252 140.653C207.566 142.31 211.294 142.517 215.022 142.655C222.96 142.931 231.037 142.655 238.631 140.446C240.564 139.893 242.566 139.134 244.154 137.961C245.81 136.718 247.053 134.923 247.191 132.852C247.398 130.022 245.603 127.536 244.43 124.982C244.085 124.223 243.739 123.325 243.947 122.497C244.43 120.564 247.122 120.288 249.124 120.564C250.781 120.771 252.438 120.909 254.094 121.116C256.165 121.323 258.651 121.392 259.824 119.667C260.86 118.217 260.307 116.077 258.996 114.903C257.684 113.73 255.889 113.316 254.094 113.247C252.3 113.178 250.574 113.454 248.779 113.316C248.365 113.316 247.95 113.247 247.605 112.97C246.777 112.349 247.191 111.037 247.743 110.209C249.055 108.414 251.126 107.103 253.335 106.826C255.544 106.55 257.684 107.103 259.893 107.31C262.102 107.517 264.518 107.31 266.106 105.722C267.625 104.203 268.039 101.925 267.97 99.7851C267.832 96.7476 263.621 92.8817 259.617 95.3669C257.408 96.7476 255.268 98.1283 253.128 99.5089C251.747 100.406 249.676 101.235 248.572 99.9231C247.743 98.8876 248.296 97.2999 249.124 96.1953C252.162 91.8462 257.201 89.4991 261.274 86.0474C267.487 80.7319 257.891 71.4814 249.952 76.7279C247.881 78.1086 246.156 80.0415 244.913 82.1816C243.463 84.7358 242.704 87.6352 240.771 89.7752C240.081 90.5346 239.183 91.2249 238.148 91.432C237.112 91.5701 235.939 91.0869 235.593 90.0514C235.248 89.0159 235.87 87.9804 236.284 86.9449C237.388 83.9764 236.353 80.5938 234.489 78.1086C233.384 76.6589 231.728 75.3473 229.933 75.4853C227.724 75.6924 226.205 77.9015 225.86 80.0415C225.515 82.1816 225.998 84.3906 225.998 86.5997C226.067 88.8088 225.515 91.2249 223.72 92.4675C223.444 92.6746 223.098 92.8127 222.753 92.8127C222.477 92.8127 222.201 92.6746 221.925 92.4675C220.199 91.2249 219.647 89.0159 218.68 87.152C217.714 85.2881 215.781 83.4242 213.779 84.0455C212.122 84.5977 211.432 86.5307 211.501 88.2565C211.639 89.9823 212.329 91.5701 212.674 93.2959C213.641 98.4734 210.051 104.065 205.012 105.308C203.562 105.653 202.043 105.722 200.732 106.274C198.454 107.172 196.797 109.381 196.037 111.728C195.278 114.075 195.209 116.56 195.209 119.045C195.278 125.396 196.314 132.576 201.422 136.373" fill="url(#paint0_linear)"/>
<g opacity="0.41">
<path opacity="0.41" d="M257.822 85.219C257.546 85.288 257.339 85.4261 257.063 85.4951C257.339 85.357 257.546 85.288 257.822 85.1499C257.822 85.0809 257.891 85.219 257.822 85.219Z" fill="#444472"/>
<path opacity="0.41" d="M254.646 86.2545C255.475 86.0474 256.234 85.7713 257.063 85.4951C256.303 85.8403 255.475 86.0474 254.646 86.2545Z" fill="#444472"/>
<path opacity="0.47" d="M216.333 93.9862C213.71 103.789 211.225 113.868 213.779 123.878C217.3 119.045 221.027 114.351 224.962 109.795C225.515 101.166 228.207 92.9507 230.83 84.7358C230.83 84.6667 230.968 84.6667 230.968 84.8048C228.759 92.7436 226.688 100.613 225.86 108.828C231.866 101.925 238.355 95.505 245.327 89.7062C245.258 89.6371 245.258 89.5681 245.258 89.4991C247.053 85.4261 249.538 81.7673 252.645 78.5918C252.645 78.5918 252.714 78.5918 252.714 78.6608C249.745 81.7673 247.467 85.288 245.81 89.292C246.984 88.3255 248.158 87.359 249.4 86.4616C249.4 86.3235 249.4 86.2545 249.538 86.2545H249.607C251.609 84.6667 253.68 83.148 255.82 81.6983C255.82 81.6983 255.889 81.6983 255.889 81.7673C253.818 83.217 251.816 84.7358 249.883 86.2545C251.402 86.4616 253.059 86.4616 254.647 86.1855C252.99 86.5997 251.402 86.7377 249.538 86.5306C243.187 91.5701 237.319 97.1618 231.866 103.099C240.357 106.343 248.986 102.892 257.546 101.856C257.615 101.856 257.615 101.925 257.546 101.925C248.986 103.168 240.15 106.965 231.59 103.72C231.521 103.72 231.451 103.651 231.451 103.582C229.45 105.722 227.517 108 225.653 110.209C225.653 110.416 225.515 110.485 225.377 110.554C223.789 112.487 222.201 114.42 220.613 116.422C229.519 119.114 238.562 120.081 247.743 118.562C247.812 118.562 247.812 118.631 247.743 118.631C238.562 120.495 229.104 120.081 220.268 116.836C217.093 120.909 214.055 125.12 211.087 129.331C219.785 132.921 229.173 135.613 238.286 131.817C238.355 131.817 238.355 131.886 238.286 131.886C229.104 135.889 219.578 133.335 210.672 129.815C209.775 131.126 208.809 132.438 207.911 133.818C207.566 134.371 206.669 133.818 207.014 133.266C209.016 130.298 211.087 127.398 213.158 124.499C210.189 114.144 213.02 103.996 215.988 93.9862C216.195 93.8482 216.333 93.9172 216.333 93.9862Z" fill="#444472"/>
</g>
<path d="M64.0953 132.477C62.6456 134.962 60.2295 136.688 57.8823 138.344C52.7739 141.865 47.3893 145.11 41.4524 146.836C39.9337 147.319 38.3459 147.664 36.7581 147.526C35.1704 147.388 33.5826 146.767 32.6161 145.455C31.3045 143.729 31.4426 141.313 31.1664 139.104C31.0974 138.413 30.8903 137.723 30.4071 137.24C29.2335 136.135 27.4386 137.171 26.196 138.137C25.1605 138.966 24.125 139.794 23.1586 140.623C21.916 141.658 20.2592 142.694 18.7404 142.072C17.4978 141.52 16.9456 139.932 17.2907 138.621C17.6359 137.309 18.6714 136.273 19.7759 135.445C20.8805 134.686 22.1921 134.064 23.2966 133.236C23.5728 133.029 23.8489 132.822 23.9179 132.546C24.1941 131.786 23.3657 131.096 22.6753 130.82C21.0185 130.198 19.1546 130.198 17.5669 130.958C15.9791 131.648 14.8055 132.96 13.4249 133.995C12.0442 135.031 10.3874 135.928 8.73058 135.583C7.14282 135.238 5.83118 133.926 5.00278 132.477C3.76018 130.406 5.00278 126.126 8.59252 126.056C10.5945 125.987 12.5965 126.056 14.5984 126.056C15.9101 126.056 17.5669 125.711 17.774 124.4C17.912 123.364 16.8075 122.605 15.841 122.191C12.0442 120.603 7.69508 121.224 3.62212 120.672C-2.65992 119.843 -0.312787 109.696 7.14281 109.834C9.07575 109.834 11.0087 110.386 12.7345 111.283C14.7365 112.319 16.4623 113.976 18.6714 114.528C19.4308 114.735 20.3282 114.804 21.0876 114.528C21.8469 114.183 22.3992 113.354 22.1921 112.526C21.985 111.698 21.1566 111.283 20.4663 110.8C18.5333 109.35 17.7049 106.658 17.912 104.242C18.0501 102.792 18.5333 101.274 19.7759 100.652C21.2947 99.8238 23.2276 100.652 24.3321 101.964C25.5057 103.206 26.058 104.863 26.9554 106.313C27.8528 107.763 29.2335 109.143 30.9593 109.212C31.2355 109.212 31.5116 109.212 31.7877 109.005C31.9948 108.867 32.0639 108.66 32.2019 108.453C32.8232 106.934 32.271 105.208 32.0639 103.552C31.8568 101.895 32.409 99.8928 33.9968 99.4786C35.3084 99.1335 36.6201 100.1 37.2414 101.343C37.8627 102.516 38.0698 103.897 38.622 105.139C40.1408 108.936 44.835 111.076 48.7009 109.834C49.8054 109.488 50.8409 108.867 51.9455 108.66C53.8094 108.315 55.8113 109.074 57.3301 110.248C58.8488 111.49 59.9533 113.078 60.9888 114.735C63.6121 118.946 65.9592 124.055 64.2334 128.749" fill="#4DC591"/>
<g opacity="0.41">
<path opacity="0.41" d="M15.1504 122.703C15.3575 122.634 15.5646 122.634 15.7717 122.565C15.5646 122.634 15.3575 122.634 15.1504 122.703C15.1504 122.703 15.1504 122.634 15.1504 122.703Z" fill="#444472"/>
<path opacity="0.41" d="M17.7047 122.013C17.0834 122.22 16.4621 122.427 15.7717 122.565C16.4621 122.496 17.0834 122.289 17.7047 122.013Z" fill="#444472"/>
</g>
<path d="M87.0145 140.768C87.6222 136.859 90.5032 133.854 92.0845 130.27C105.938 98.9391 115.707 122.733 116.97 103.551C118.021 87.8852 139.004 83.718 139.602 90.677C140.023 96.1823 145.864 100.145 149.608 96.1509C154.355 91.1006 154.132 82.7685 158.487 77.3232C161.011 74.2143 165.068 72.3947 168.93 72.6147C172.447 72.8274 175.861 74.6261 179.393 74.1486C185.681 73.2878 190.026 65.7293 196.334 65.8494C196.873 65.8332 197.424 65.9139 197.859 66.2546C198.77 66.8816 198.978 68.1841 199.022 69.3588C199.235 72.3325 199.355 75.7599 197.319 78.0229C195.549 80.0568 192.557 80.5181 190.842 82.5946C189.072 84.6285 189.103 87.7225 189.475 90.3819C189.901 93.0838 190.672 95.7931 190.16 98.4613C189.389 102.243 186.054 105.155 182.399 106.237C178.799 107.362 174.913 106.948 171.252 106.36C170.302 106.229 169.298 106.056 168.286 106.228C165.166 106.852 163.775 111.2 165.206 114.075C165.734 115.191 166.639 116.164 166.986 117.4C167.912 120.582 164.807 123.761 161.663 124.192C158.476 124.677 155.412 123.327 152.351 122.42C149.291 121.513 145.781 120.955 143.104 122.804C139.699 125.134 139.221 130.11 136.937 133.583C134.496 137.37 129.954 139.248 125.569 139.583C121.238 139.961 116.864 139.164 112.525 138.658C103.524 137.831 95.5828 137.221 87.0145 140.768Z" fill="#4DC591"/>
<path d="M77.3208 138.656C83.8681 131.668 90.4844 124.682 95.5911 116.578C103.776 103.598 107.702 88.0282 106.793 72.6947C106.669 71.0368 106.065 68.8917 104.409 68.878C103.649 68.8717 103.025 69.2807 102.468 69.7594C101.009 70.9209 99.6865 72.2216 98.57 73.6621C97.802 74.6913 96.8259 75.8568 95.5845 75.7085C94.6876 75.632 94.0727 74.8675 93.6648 74.1047C91.6241 70.4289 92.8366 65.7446 95.0747 62.2423C97.3129 58.74 100.512 55.867 102.751 52.2957C104.99 48.7244 106.133 44.0394 104.023 40.4321C103.478 39.5301 102.657 38.6949 101.621 38.6863C101.138 38.6823 100.722 38.8859 100.306 39.0896C95.7312 41.3299 94.0281 46.9077 91.8499 51.515C91.6388 51.9965 91.289 52.5459 90.8041 52.749C90.0425 53.0188 89.2883 52.3913 88.8102 51.766C86.3548 48.1558 88.5343 43.4104 90.3622 39.4214C92.8229 34.057 94.6686 27.9282 92.9897 22.2533C92.5858 21.0073 91.9749 19.7596 90.8761 19.0602C88.2655 17.5198 84.9291 20.2535 84.3523 23.2173C83.7755 26.1811 84.7167 29.2264 84.7606 32.2644C84.7543 33.0237 84.679 33.7825 84.1222 34.3301C83.2179 35.1511 81.6348 34.5857 81.0221 33.5451C80.4094 32.5045 80.4892 31.1934 80.6376 29.952C81.477 20.294 81.9793 9.66664 75.9674 2.02291C75.3524 1.25842 74.6684 0.493366 73.7043 0.209236C71.8445 -0.289421 70.0376 1.14536 69.1265 2.79467C66.6744 7.12361 67.8027 12.5868 69.7669 17.1594C71.7311 21.732 74.5259 26.0354 75.4523 30.8756C75.7831 32.6042 75.8367 34.4686 75.1333 36.0506C74.4298 37.6326 72.7622 38.9305 71.0376 38.7781C68.7612 38.5521 67.3305 36.2621 66.3812 34.1832C65.5665 32.5196 64.7519 30.856 63.9367 29.2614C63.4615 28.291 62.7803 27.1807 61.6758 27.1716C60.2958 27.0911 59.5906 28.8802 59.5786 30.3299C59.5448 34.4027 61.7914 38.2183 64.6667 41.1416C67.4729 44.0643 70.9056 46.3709 74.0593 49.0204C74.882 49.7176 75.7041 50.4838 76.1793 51.4542C76.7902 52.7019 76.7086 54.2201 76.4211 55.5984C75.7085 58.2849 73.9632 60.6176 71.5357 61.9782C69.7323 62.9988 67.6574 63.4649 66.0588 64.7633C63.3489 66.881 62.6237 71.0862 64.5325 74.0015C66.1681 76.5693 69.2654 77.6996 72.2297 78.2074C75.194 78.7152 78.301 78.6719 81.1929 79.5933C82.501 80.0184 83.808 80.5815 84.5582 81.6923C85.6496 83.2891 85.3557 85.4268 84.5821 87.1463C83.3868 89.7597 81.2286 91.951 78.5962 93.0338C76.1716 94.0492 73.4777 94.234 70.9857 95.0418C68.4943 95.7805 65.9264 97.4161 65.284 99.9651C64.3557 103.685 67.9184 106.96 71.3557 108.714C74.7935 110.399 78.8549 111.814 80.483 115.279C81.6371 117.636 81.2685 120.463 80.7641 123.013C79.6824 128.596 77.912 133.966 75.522 139.124" fill="#4DC591"/>
<path d="M265.554 150.732C268.453 147.901 270.731 144.381 272.112 140.584C273.424 136.718 273.562 132.507 273.562 128.434C273.493 123.878 273.217 119.322 272.733 114.834C265.692 117.044 258.72 119.667 252.369 123.395C246.018 127.122 240.081 131.955 236.353 138.375C230.002 149.351 232.142 161.984 232.142 161.984C232.142 161.984 249.883 166.057 265.554 150.732Z" fill="url(#paint1_linear)"/>
<path opacity="0.3" d="M244.913 151.629C248.503 148.523 252.023 145.209 255.268 141.757C261.481 135.13 266.727 127.675 270.248 119.115C270.317 118.907 270.041 118.769 269.903 118.976C266.037 127.744 260.238 135.406 253.68 142.103C250.574 145.278 247.329 148.247 243.946 151.146C240.426 154.183 236.56 156.807 233.108 159.982C232.694 160.327 233.246 160.88 233.66 160.604C237.664 157.98 241.323 154.736 244.913 151.629Z" fill="url(#paint2_linear)"/>
<path d="M245.465 171.718C248.365 172.546 251.609 172.753 254.647 172.201C257.753 171.58 260.722 170.13 263.621 168.542C266.797 166.748 269.834 164.815 272.803 162.813C268.937 158.947 264.864 155.288 260.169 152.527C255.475 149.696 250.16 147.625 244.499 147.556C234.765 147.487 226.688 153.769 226.688 153.769C226.688 153.769 229.657 167.162 245.465 171.718Z" fill="url(#paint3_linear)"/>
<path opacity="0.3" d="M238.079 158.394C241.461 159.637 244.844 160.673 248.365 161.57C254.992 163.158 261.964 163.848 269.075 162.951C269.213 162.951 269.213 162.675 269.075 162.675C261.688 163.434 254.509 162.536 247.674 160.742C244.43 159.913 241.323 158.878 238.217 157.704C234.972 156.462 231.866 154.943 228.552 153.838C228.207 153.7 227.931 154.252 228.276 154.46C231.314 155.978 234.765 157.152 238.079 158.394Z" fill="url(#paint4_linear)"/>
<path d="M138.482 74.9703C141.451 72.6922 144.005 69.7237 145.731 66.2721C147.457 62.7514 148.147 58.7474 148.699 54.7435C149.251 50.3253 149.666 45.9072 149.804 41.42C143.177 42.3865 136.618 43.6981 130.405 46.2524C124.192 48.8066 118.186 52.4654 113.975 57.988C106.727 67.5147 107.003 80.0787 107.003 80.0787C107.003 80.0787 122.398 87.1201 138.482 74.9703Z" fill="#4DC591"/>
<g opacity="0.41">
<path opacity="0.41" d="M123.414 90.7417C123.345 91.0179 123.276 91.225 123.207 91.5011C123.276 91.225 123.345 91.0179 123.345 90.7417C123.345 90.6727 123.414 90.7417 123.414 90.7417Z" fill="#444472"/>
<path opacity="0.41" d="M122.379 93.8482C122.655 93.0889 122.931 92.3295 123.207 91.5011C123 92.3295 122.724 93.0889 122.379 93.8482Z" fill="#444472"/>
<path opacity="0.47" d="M106.846 128.089C112.645 135.89 118.72 143.828 127.556 147.832C125.968 142.241 124.519 136.58 123.345 130.85C117.27 125.258 112.645 118.355 108.089 111.452C108.02 111.383 108.158 111.314 108.158 111.383C112.783 117.803 117.477 124.085 123.069 129.608C121.343 120.909 120.17 112.073 119.755 103.168C119.686 103.168 119.617 103.168 119.617 103.099C117.615 99.3019 116.235 95.2289 115.682 90.9489C115.682 90.8798 115.751 90.8798 115.751 90.9489C116.442 95.0909 117.753 98.9567 119.755 102.615C119.686 101.166 119.686 99.6471 119.617 98.1974C119.548 98.1283 119.479 98.0593 119.548 97.9212L119.617 97.8522C119.617 95.367 119.617 92.8818 119.755 90.3276C119.755 90.2585 119.824 90.3276 119.824 90.3276C119.755 92.7437 119.755 95.2289 119.824 97.6451C120.791 96.6096 121.757 95.298 122.379 93.9173C121.757 95.436 120.998 96.8167 119.824 98.0593C120.032 105.929 120.929 113.799 122.241 121.531C129.351 116.836 131.629 108.138 135.564 100.89C135.564 100.821 135.633 100.89 135.633 100.89C131.767 108.276 129.696 117.32 122.517 122.014C122.448 122.083 122.379 122.083 122.31 122.083C122.793 124.913 123.345 127.675 123.966 130.505C124.105 130.643 124.105 130.781 124.035 130.919C124.588 133.335 125.14 135.682 125.761 138.03C132.665 132.783 138.394 126.294 142.398 118.286C142.398 118.217 142.467 118.286 142.467 118.286C138.74 126.501 133.217 133.542 125.899 138.444C127.142 143.345 128.523 148.178 130.041 153.01C137.566 148.385 144.745 142.724 147.024 133.404C147.024 133.335 147.093 133.404 147.093 133.404C144.953 142.862 137.773 148.73 130.248 153.562C130.732 155.081 131.215 156.531 131.698 158.049C131.905 158.671 131.008 159.016 130.801 158.394C129.696 155.081 128.73 151.767 127.763 148.454C118.444 144.588 112.507 136.442 106.777 128.158C106.708 128.089 106.777 128.02 106.846 128.089Z" fill="#444472"/>
</g>
<path d="M110.641 49.4434L63.7205 152.246L65.6672 153.135L112.588 50.332L110.641 49.4434Z" fill="#00664F"/>
<path d="M63.3555 155.564C61.7677 154.874 61.0774 152.941 61.7677 151.353C62.458 149.765 64.391 149.075 65.9787 149.765C92.7637 161.984 124.45 150.18 136.669 123.395C148.888 96.6097 137.083 64.9233 110.298 52.7044C108.71 52.0141 108.02 50.0812 108.71 48.4934C109.401 46.9056 111.334 46.2153 112.921 46.9056C142.813 60.5742 156.067 95.9884 142.399 125.949C128.73 156.047 93.3159 169.233 63.3555 155.564Z" fill="#00664F"/>
<path d="M88.1383 151.284C115.742 151.284 138.118 128.907 138.118 101.304C138.118 73.7006 115.742 51.3237 88.1383 51.3237C60.5351 51.3237 38.1582 73.7006 38.1582 101.304C38.1582 128.907 60.5351 151.284 88.1383 151.284Z" fill="#B0DDC9"/>
<path d="M133.631 122.083C131.905 125.88 129.765 129.331 127.28 132.507C121.343 134.992 114.716 135.821 108.365 134.716C107.537 134.578 106.708 134.371 106.087 133.819C104.223 132.162 105.811 129.193 105.811 126.708C105.811 124.637 104.568 122.773 103.395 121.047C100.771 117.182 98.1481 112.418 99.7359 107.931C101.324 103.444 106.639 101.028 108.02 96.4716C109.263 92.1225 106.432 87.6353 106.363 83.0791C106.294 79.5584 108.02 76.1758 110.436 73.6906C112.921 71.2054 116.097 69.5486 119.41 68.375C121.136 67.7537 123.069 67.3395 124.933 67.3395C138.118 81.7675 142.26 103.237 133.631 122.083ZM72.951 147.97C75.5052 146.728 77.6452 144.381 78.1285 141.619C78.6117 138.582 77.093 135.613 75.2291 133.197C73.2961 130.781 71.018 128.71 69.4303 126.087C68.7399 124.982 68.2567 123.74 68.2567 122.428C68.3257 118.838 72.1916 116.353 72.6058 112.832C73.02 109.726 70.5348 106.896 67.7735 105.515C64.9431 104.134 61.7676 103.789 58.7301 102.961C55.6926 102.132 52.6552 100.475 51.4126 97.5761C49.8938 93.9173 51.8268 89.5682 49.7558 86.1166C48.4441 83.9075 44.9925 82.4578 42.024 81.9746C31.6 106.758 42.7144 135.544 67.3593 146.797C68.809 147.418 70.1896 148.039 71.6393 148.523C72.1226 148.385 72.5368 148.178 72.951 147.97ZM59.0753 60.6433C59.2133 61.1955 59.4204 61.7478 59.6966 62.231C62.1127 67.3395 67.2902 71.2054 68.0496 76.7971C68.2567 78.3158 68.1877 80.0416 69.1541 81.2152C69.6374 81.8365 70.3967 82.1817 71.1561 82.5268C77.4381 85.1501 85.3079 83.2862 89.657 78.0397C93.8681 72.9312 94.6274 65.8208 97.941 60.091C98.9075 58.4342 100.081 56.8464 100.081 54.9135C100.081 54.0851 99.8049 53.3257 99.3907 52.6354C85.1699 49.3218 70.5348 52.4283 59.0753 60.6433Z" fill="#2EA889"/>
<path d="M93.0395 159.775H83.2368V183.108H93.0395V159.775Z" fill="#00664F"/>
<path d="M126.866 191.461H49.4107C46.8565 191.461 44.8545 189.39 44.8545 186.905C44.8545 184.351 46.9255 182.349 49.4107 182.349H126.797C129.351 182.349 131.353 184.42 131.353 186.905C131.422 189.39 129.351 191.461 126.866 191.461Z" fill="#00664F"/>
<path d="M233.039 142.172C237.941 142.172 241.944 138.168 241.944 133.266C241.944 128.365 237.941 124.361 233.039 124.361H128.799C132.25 130.298 132.25 136.235 128.799 142.172H233.039Z" fill="#EDEDED"/>
<path d="M233.04 142.172C238.079 142.172 242.152 137.961 241.945 132.852C241.738 128.089 237.596 124.43 232.832 124.43H127.419C126.659 124.43 126.038 123.809 126.038 123.049C126.038 122.29 126.659 121.669 127.419 121.669H233.04C239.46 121.669 244.637 126.846 244.637 133.266C244.637 139.687 239.46 144.864 233.04 144.864H127.419C126.659 144.864 126.038 144.243 126.038 143.483C126.038 142.724 126.659 142.103 127.419 142.103H233.04V142.172Z" fill="#FFC278"/>
<path d="M238.217 126.087L229.795 126.156L213.986 126.294L182.3 126.363L150.614 126.294L134.805 126.225L129.696 126.156C129.627 126.087 129.627 126.018 129.558 125.949L134.736 125.88L150.544 125.811L182.231 125.742L213.917 125.811L229.726 125.88L237.872 125.949C238.079 125.949 238.148 126.018 238.217 126.087ZM240.288 128.158C240.288 128.089 240.219 128.089 240.219 128.02L229.864 127.882L214.055 127.813L182.369 127.744L150.683 127.813L134.874 127.882L130.525 127.951C130.525 128.02 130.594 128.089 130.594 128.227L134.874 128.296L150.683 128.365L182.369 128.434L213.986 128.365L229.795 128.296L240.288 128.158ZM241.392 130.229C241.392 130.229 241.392 130.16 241.323 130.16L229.795 130.022L213.986 129.953L182.3 129.884L150.614 129.953L134.805 130.022L131.077 130.091C131.077 130.16 131.077 130.298 131.146 130.367L134.874 130.436L150.683 130.505L182.369 130.574L213.986 130.436L229.795 130.367L241.392 130.229ZM129.558 140.722L134.736 140.791L150.544 140.86L182.231 140.929L213.917 140.86L229.726 140.791L237.872 140.722C237.941 140.653 238.01 140.584 238.079 140.584L229.657 140.515L213.848 140.446L182.162 140.377L150.475 140.446L134.667 140.515L129.558 140.584C129.627 140.515 129.627 140.653 129.558 140.722ZM240.219 138.582C240.219 138.513 240.288 138.513 240.288 138.444L229.864 138.306L214.055 138.237L182.369 138.168L150.683 138.237L134.874 138.306L130.594 138.375C130.594 138.444 130.525 138.513 130.525 138.651L134.874 138.72L150.683 138.789L182.369 138.858L214.055 138.789L229.864 138.72L240.219 138.582ZM241.323 136.442C241.323 136.442 241.323 136.373 241.392 136.373L229.864 136.235L214.055 136.166L182.369 136.097L150.683 136.166L134.874 136.235L131.146 136.304C131.146 136.373 131.146 136.511 131.077 136.58L134.805 136.649L150.614 136.718L182.3 136.787L213.986 136.718L229.795 136.649L241.323 136.442ZM241.876 134.371V134.302L229.795 134.164L213.986 134.095L182.3 134.026L150.614 134.095L134.805 134.164L131.353 134.233C131.353 134.302 131.353 134.44 131.353 134.509L134.805 134.578L150.614 134.647L182.3 134.716L213.986 134.578L229.795 134.509L241.876 134.371ZM241.876 132.3V132.231L229.864 132.093L214.055 132.024L182.369 131.955L150.683 132.024L134.874 132.093L131.422 132.162C131.422 132.231 131.422 132.369 131.422 132.438L134.874 132.507L150.683 132.576L182.369 132.645L213.986 132.507L229.795 132.438L241.876 132.3Z" fill="#E1E3EF"/>
<path d="M140.051 141.412L144.607 138.789L149.163 141.412V129.953H140.051V141.412Z" fill="#FFC278"/>
<path d="M137.704 165.436C132.803 165.436 128.799 161.432 128.799 156.531C128.799 151.629 132.803 147.625 137.704 147.625H241.945C238.493 153.562 238.493 159.499 241.945 165.436H137.704Z" fill="#EDEDED"/>
<path d="M137.704 165.436C132.665 165.436 128.592 161.225 128.799 156.116C129.006 151.353 133.148 147.694 137.911 147.694H243.256C244.016 147.694 244.637 147.073 244.637 146.314C244.637 145.554 244.016 144.933 243.256 144.933H137.635C131.215 144.933 126.038 150.11 126.038 156.531C126.038 162.951 131.215 168.128 137.635 168.128H243.256C244.016 168.128 244.637 167.507 244.637 166.748C244.637 165.988 244.016 165.367 243.256 165.367H137.704V165.436Z" fill="#FF7648"/>
<path d="M132.734 149.144L140.88 149.075L156.689 149.006L188.375 148.937L220.061 149.006L235.87 149.075L241.047 149.144C240.978 149.213 240.978 149.282 240.909 149.351L235.801 149.42L219.992 149.489L188.306 149.558L156.62 149.489L140.811 149.42L132.389 149.351C132.596 149.282 132.665 149.213 132.734 149.144ZM140.88 151.491L156.689 151.56L188.375 151.629L220.061 151.56L235.87 151.491L240.15 151.422C240.15 151.353 240.219 151.284 240.219 151.146L235.87 151.077L220.061 151.008L188.375 150.939L156.689 151.008L140.88 151.077L130.525 151.215C130.525 151.284 130.456 151.284 130.456 151.353L140.88 151.491ZM140.88 153.562L156.689 153.631L188.375 153.7L220.061 153.631L235.87 153.562L239.598 153.493C239.598 153.424 239.598 153.286 239.667 153.217L235.939 153.148L220.13 153.079L188.444 153.01L156.758 153.079L140.949 153.148L129.42 153.286C129.42 153.286 129.42 153.355 129.351 153.355L140.88 153.562ZM241.047 163.71L235.939 163.641L220.13 163.572L188.444 163.503L156.758 163.572L140.949 163.641L132.527 163.71C132.596 163.779 132.665 163.848 132.734 163.848L140.88 163.917L156.689 163.986L188.375 164.055L220.061 163.986L235.87 163.917L241.047 163.848C241.116 163.917 241.116 163.779 241.047 163.71ZM140.88 161.915L156.689 161.984L188.375 162.053L220.061 161.984L235.87 161.915L240.219 161.846C240.219 161.777 240.15 161.708 240.15 161.57L235.87 161.501L220.061 161.432L188.375 161.363L156.689 161.432L140.88 161.501L130.456 161.639C130.456 161.708 130.525 161.708 130.525 161.777L140.88 161.915ZM140.88 159.844L156.689 159.913L188.375 159.982L220.061 159.913L235.87 159.844L239.598 159.775C239.598 159.706 239.598 159.568 239.529 159.499L235.801 159.43L219.992 159.361L188.306 159.292L156.62 159.361L140.811 159.43L129.282 159.568C129.282 159.568 129.282 159.637 129.351 159.637L140.88 159.844ZM140.88 157.773L156.689 157.842L188.375 157.911L220.061 157.842L235.87 157.773L239.321 157.704C239.321 157.635 239.321 157.497 239.321 157.428L235.87 157.359L220.061 157.29L188.375 157.221L156.689 157.29L140.88 157.359L128.799 157.497V157.566L140.88 157.773ZM140.88 155.702L156.689 155.771L188.375 155.84L220.061 155.771L235.87 155.702L239.321 155.633C239.321 155.564 239.321 155.426 239.321 155.357L235.87 155.288L220.061 155.219L188.375 155.15L156.689 155.219L140.88 155.288L128.868 155.426V155.495L140.88 155.702Z" fill="#E1E3EF"/>
<path d="M233.523 160.604L228.966 157.98L224.479 160.604V149.075H233.523V160.604Z" fill="#FE9946"/>
<path d="M233.039 188.7C237.941 188.7 241.944 184.696 241.944 179.795C241.944 174.894 237.941 170.89 233.039 170.89H128.799C132.25 176.827 132.25 182.763 128.799 188.7H233.039V188.7Z" fill="#EDEDED"/>
<path d="M233.039 188.7C238.079 188.7 242.152 184.489 241.945 179.381C241.738 174.617 237.596 170.959 232.832 170.959H127.487C126.728 170.959 126.107 170.337 126.107 169.578C126.107 168.819 126.728 168.197 127.487 168.197H233.108C239.528 168.197 244.706 173.375 244.706 179.795C244.706 186.215 239.528 191.392 233.108 191.392H127.487C126.728 191.392 126.107 190.771 126.107 190.012C126.107 189.252 126.728 188.631 127.487 188.631H233.039V188.7Z" fill="#8F98FF"/>
<path d="M238.217 172.615L229.795 172.684L213.986 172.753L182.3 172.822L150.614 172.753L134.805 172.684L129.696 172.615C129.627 172.546 129.627 172.477 129.558 172.408L134.736 172.339L150.544 172.27L182.231 172.201L213.917 172.27L229.726 172.339L237.872 172.408C238.079 172.477 238.148 172.546 238.217 172.615ZM240.288 174.686C240.288 174.617 240.219 174.617 240.219 174.548L229.864 174.41L214.055 174.341L182.369 174.272L150.683 174.341L134.874 174.41L130.525 174.479C130.525 174.548 130.594 174.617 130.594 174.755L134.874 174.824L150.683 174.893L182.369 174.963L214.055 174.893L229.864 174.824L240.288 174.686ZM241.392 176.757C241.392 176.757 241.392 176.688 241.323 176.688L229.795 176.55L213.986 176.481L182.3 176.412L150.614 176.481L134.805 176.55L131.077 176.619C131.077 176.688 131.077 176.826 131.146 176.895L134.874 176.964L150.683 177.034L182.369 177.103L214.055 177.034L229.864 176.964L241.392 176.757ZM240.219 185.11C240.219 185.041 240.288 185.041 240.288 184.972L229.864 184.834L214.055 184.765L182.369 184.696L150.683 184.765L134.874 184.834L130.594 184.903C130.594 184.972 130.525 185.041 130.525 185.179L134.874 185.248L150.683 185.318L182.369 185.387L214.055 185.318L229.864 185.248L240.219 185.11ZM241.323 182.97C241.323 182.97 241.323 182.901 241.392 182.901L229.864 182.763L214.055 182.694L182.369 182.625L150.683 182.694L134.874 182.763L131.146 182.832C131.146 182.901 131.146 183.039 131.077 183.108L134.805 183.177L150.614 183.247L182.3 183.316L213.986 183.247L229.795 183.177L241.323 182.97ZM241.876 180.899V180.83L229.795 180.692L213.986 180.623L182.3 180.554L150.614 180.623L134.805 180.692L131.353 180.761C131.353 180.83 131.353 180.968 131.353 181.037L134.805 181.106L150.614 181.176L182.3 181.245L213.986 181.176L229.795 181.106L241.876 180.899ZM241.876 178.828V178.759L229.864 178.621L214.055 178.552L182.369 178.483L150.683 178.552L134.874 178.621L131.422 178.69C131.422 178.759 131.422 178.897 131.422 178.966L134.874 179.035L150.683 179.105L182.369 179.174L214.055 179.105L229.864 179.035L241.876 178.828Z" fill="#E1E3EF"/>
<path d="M165.11 187.941L169.667 185.318L174.154 187.941V176.412H165.11V187.941Z" fill="#8F98FF"/>
<defs>
<linearGradient id="paint0_linear" x1="264.5" y1="79.7718" x2="141.845" y2="187.549" gradientUnits="userSpaceOnUse">
<stop stop-color="#6CD3FF"/>
<stop offset="1" stop-color="#8582C9"/>
</linearGradient>
<linearGradient id="paint1_linear" x1="272.253" y1="124.533" x2="225.833" y2="165.544" gradientUnits="userSpaceOnUse">
<stop offset="0.00060096" stop-color="#B2DB90"/>
<stop offset="1" stop-color="#2BBA90"/>
</linearGradient>
<linearGradient id="paint2_linear" x1="247.047" y1="128.394" x2="256.474" y2="151.186" gradientUnits="userSpaceOnUse">
<stop stop-color="#2B6565"/>
<stop offset="1" stop-color="#2BBA90"/>
</linearGradient>
<linearGradient id="paint3_linear" x1="271.423" y1="170.331" x2="219.139" y2="147.141" gradientUnits="userSpaceOnUse">
<stop offset="0.00252404" stop-color="#56D6D5"/>
<stop offset="1" stop-color="#00674B"/>
</linearGradient>
<linearGradient id="paint4_linear" x1="240.783" y1="145.904" x2="256.376" y2="170.828" gradientUnits="userSpaceOnUse">
<stop stop-color="#2B6565"/>
<stop offset="1" stop-color="#2BBA90"/>
</linearGradient>
</defs>
</svg>
