<svg width="48" height="48" viewBox="0 0 48 48" fill="none" xmlns="http://www.w3.org/2000/svg">
<circle cx="24" cy="24" r="24" fill="url(#paint0_linear)"/>
<mask id="mask0" mask-type="alpha" maskUnits="userSpaceOnUse" x="0" y="0" width="48" height="48">
<circle cx="24" cy="24" r="24" fill="url(#paint1_linear)"/>
</mask>
<g mask="url(#mask0)">
<path d="M15.2 32.9276C18.1333 35.0536 21.0667 36.7545 24 36.7545C26.9333 36.7545 29.8667 35.0536 32.8 32.9276C30.3822 32.1941 29.1555 31.0991 29.12 29.6428C29.12 29.3832 29.1219 29.0145 29.1237 28.3223C29.1237 28.2124 29.1239 28.0998 29.1245 27.9846C29.1293 26.1285 29.1371 23.6792 29.1482 21.1917C31.4413 18.2295 30.5989 14.7567 29.8803 14.8433C28.9994 14.9501 21.3669 7.73183 19.9029 7.36173C18.4389 6.99163 14.72 8.18644 14.08 11.5151C13.44 14.8438 13.1725 23.234 15.6 26.5837C16.2908 27.537 17.3788 27.9098 18.864 27.7023C18.8661 28.399 18.8702 28.79 18.88 29.579C18.8609 31.1016 17.6344 32.1949 15.2 32.9276Z" fill="url(#paint2_linear)"/>
<path d="M18.8801 27.6999C22.4001 27.3012 24.6401 25.7864 24.6401 25.7864C24.6401 25.7864 22.0801 28.9755 18.8801 29.6133V27.6999Z" fill="#FC9F6A"/>
<path d="M30.32 21.242C31.4224 18.5998 35.84 13.2186 32.032 9.86999C30.752 3.65119 23.68 4.33956 18.96 5.77467C15.7877 6.73922 13.392 8.64489 12.88 7.20978C9.68002 9.86999 11.2826 12.4718 13.392 13.2186C15.3066 13.8963 18.544 14.574 24.049 13.9361C25.0323 13.8221 24.8264 16.8236 25.3519 17.1481C26.1402 17.6349 26.752 14.574 28.9133 15.4931C31.0746 16.4122 29.792 20.6738 27.472 20.6738C26.672 20.6738 26.272 22.8659 28.432 23.9023C30 24.6703 29.6037 22.9588 30.32 21.242Z" fill="url(#paint3_linear)"/>
<path d="M40.8001 37.7948C42.3233 40.8814 43.2001 48.0001 43.2001 48.0001H4.80005C4.80005 48.0001 5.67717 40.8806 7.20005 37.7948C8.72293 34.709 17.616 31.8469 17.616 31.8469C22.5301 33.7593 25.5373 33.7593 30.3794 31.8458C30.3794 31.8458 39.2769 34.7082 40.8001 37.7948Z" fill="url(#paint4_linear)"/>
<path d="M25.1201 32.962L25.9201 47.632H22.0801L22.8801 32.962C22.8801 32.962 23.6268 32.1647 24.0001 32.1647C24.3734 32.1647 25.1201 32.962 25.1201 32.962Z" fill="url(#paint5_linear)"/>
<path d="M25.3024 35.9425L22.7864 34.4937L22.8801 32.962C23.378 32.4304 23.7513 32.1647 24.0001 32.1647C24.249 32.1647 24.6223 32.4304 25.1201 32.962L25.3025 35.9425H25.3024Z" fill="#AFB5C0"/>
<path d="M23.9999 32.1634L22.3999 35.0349L17.4399 32.0052L18.8799 29.9323L23.9999 31.8172L29.1199 29.9323L30.5599 32.0052L25.5999 35.0349L23.9999 32.1634Z" fill="white"/>
</g>
<defs>
<linearGradient id="paint0_linear" x1="24" y1="0" x2="24" y2="48" gradientUnits="userSpaceOnUse">
<stop stop-color="#64B1FF"/>
<stop offset="1" stop-color="#509DFF"/>
</linearGradient>
<linearGradient id="paint1_linear" x1="24" y1="0" x2="24" y2="48" gradientUnits="userSpaceOnUse">
<stop stop-color="#64B1FF"/>
<stop offset="1" stop-color="#64B1FF"/>
</linearGradient>
<linearGradient id="paint2_linear" x1="23.2195" y1="7.297" x2="23.2195" y2="36.7545" gradientUnits="userSpaceOnUse">
<stop stop-color="#F7B186"/>
<stop offset="1" stop-color="#FFC299"/>
</linearGradient>
<linearGradient id="paint3_linear" x1="22.3105" y1="4.80005" x2="22.3105" y2="24.0912" gradientUnits="userSpaceOnUse">
<stop stop-color="#0A1931"/>
<stop offset="1" stop-color="#1E2D45"/>
</linearGradient>
<linearGradient id="paint4_linear" x1="24" y1="31.8458" x2="24" y2="48.0001" gradientUnits="userSpaceOnUse">
<stop stop-color="#0A1931"/>
<stop offset="1" stop-color="#1E2D45"/>
</linearGradient>
<linearGradient id="paint5_linear" x1="24.0001" y1="32.1647" x2="24.0001" y2="47.632" gradientUnits="userSpaceOnUse">
<stop stop-color="#AFB5C0"/>
<stop offset="1" stop-color="#4F5665"/>
</linearGradient>
</defs>
</svg>
