<svg width="48" height="48" viewBox="0 0 48 48" fill="none" xmlns="http://www.w3.org/2000/svg">
<circle cx="24" cy="24" r="24" fill="url(#paint0_linear)"/>
<mask id="mask0" mask-type="alpha" maskUnits="userSpaceOnUse" x="0" y="0" width="48" height="48">
<circle cx="24" cy="24" r="24" fill="url(#paint1_linear)"/>
</mask>
<g mask="url(#mask0)">
<path d="M35.6958 24.8723C36.9895 20.5603 37.7869 13.1884 32.3466 8.14675C28.189 4.29363 16.9567 3.90534 13.0494 12.3081C12.3971 13.7108 13.2886 15.9093 15.0429 15.8293C15.7324 15.7973 16.1593 17.99 16.558 19.3505C15.9998 24.8723 11.0269 24.9743 8.5042 29.1938C5.39431 34.3955 9.22186 42.0781 18.392 42.0781C27.5622 42.0781 32.819 34.4603 35.6958 24.8723Z" fill="url(#paint2_linear)"/>
<path d="M38.8054 37.5045C39.9749 39.7651 40.5597 48 40.5597 48H7.70654C7.70654 48 8.29136 39.7651 9.46084 37.5045C11.2151 34.1136 24.1331 29.7539 24.1331 29.7539C24.1331 29.7539 37.0511 34.1136 38.8054 37.5045Z" fill="url(#paint3_linear)"/>
<path d="M27.9605 31.6745C27.9605 31.6745 25.9246 32.7949 24.0516 32.7949C22.1787 32.7949 20.3054 31.6745 20.3054 31.6745V28.1533C19.9025 28.2173 19.4943 28.2416 19.0867 28.226C15.261 28.2257 13.8185 22.6333 14.5641 15.8292C15.0425 15.8292 16.1589 15.8292 17.7537 13.5885C17.355 16.7095 21.98 16.2294 23.7343 13.7486C22.8571 16.7095 25.1696 18.7102 27.1631 17.5098C31.0722 15.1559 31.9509 22.3316 27.9605 22.3914V31.6745Z" fill="url(#paint4_linear)"/>
<g style="mix-blend-mode:multiply" opacity="0.782">
<path d="M20.3057 28.1533C22.284 27.7877 24.177 27.055 25.8875 25.9926C25.8875 25.9926 23.894 29.4337 20.3057 29.4337V28.1533Z" fill="#FFD7B8"/>
</g>
<path d="M24.1388 32.6309C25.2913 32.5785 27.9611 32.0119 27.9611 30.7879V29.7539C28.2535 29.7539 29.091 30.4473 29.5217 31.0343C31.2244 33.3551 29.3358 35.4358 27.7955 35.4358C25.8521 35.4358 24.5641 33.8061 24.1335 33.0222C23.7029 33.8065 22.4149 35.4358 20.4715 35.4358C18.9312 35.4358 17.0427 33.3551 18.7453 31.0343C19.176 30.4473 20.0135 29.7539 20.306 29.7539V30.7879C20.306 32.0119 23.0478 32.5785 24.1388 32.6309Z" fill="#4F5665"/>
<path d="M23.4956 43.5185C23.4956 43.3919 23.533 43.2681 23.6031 43.1629C23.6732 43.0576 23.7728 42.9755 23.8894 42.9271C24.006 42.8786 24.1342 42.8659 24.258 42.8906C24.3817 42.9153 24.4954 42.9763 24.5846 43.0658C24.6738 43.1554 24.7346 43.2695 24.7592 43.3936C24.7838 43.5178 24.7712 43.6466 24.7229 43.7635C24.6746 43.8805 24.5928 43.9805 24.4879 44.0509C24.383 44.1212 24.2597 44.1588 24.1335 44.1588C23.9643 44.1588 23.8021 44.0913 23.6824 43.9712C23.5628 43.8512 23.4956 43.6883 23.4956 43.5185ZM23.4956 40.3175C23.4956 40.1909 23.533 40.0671 23.6031 39.9618C23.6732 39.8565 23.7728 39.7745 23.8894 39.726C24.006 39.6775 24.1342 39.6649 24.258 39.6896C24.3817 39.7143 24.4954 39.7752 24.5846 39.8648C24.6738 39.9543 24.7346 40.0684 24.7592 40.1926C24.7838 40.3168 24.7712 40.4455 24.7229 40.5625C24.6746 40.6795 24.5928 40.7794 24.4879 40.8498C24.383 40.9201 24.2597 40.9577 24.1335 40.9577C23.9643 40.9577 23.8021 40.8902 23.6824 40.7702C23.5628 40.6501 23.4956 40.4873 23.4956 40.3175ZM23.4956 37.1164C23.4956 36.9898 23.533 36.866 23.6031 36.7607C23.6732 36.6554 23.7728 36.5734 23.8894 36.5249C24.006 36.4765 24.1342 36.4638 24.258 36.4885C24.3817 36.5132 24.4954 36.5742 24.5846 36.6637C24.6738 36.7532 24.7346 36.8673 24.7592 36.9915C24.7838 37.1157 24.7712 37.2444 24.7229 37.3614C24.6746 37.4784 24.5928 37.5784 24.4879 37.6487C24.383 37.7191 24.2597 37.7566 24.1335 37.7566C23.9643 37.7566 23.8021 37.6892 23.6824 37.5691C23.5628 37.449 23.4956 37.2862 23.4956 37.1164V37.1164Z" fill="url(#paint5_linear)"/>
</g>
<defs>
<linearGradient id="paint0_linear" x1="24" y1="0" x2="24" y2="48" gradientUnits="userSpaceOnUse">
<stop stop-color="#64B1FF"/>
<stop offset="1" stop-color="#509DFF"/>
</linearGradient>
<linearGradient id="paint1_linear" x1="24" y1="0" x2="24" y2="48" gradientUnits="userSpaceOnUse">
<stop stop-color="#64B1FF"/>
<stop offset="1" stop-color="#509DFF"/>
</linearGradient>
<linearGradient id="paint2_linear" x1="22.0413" y1="5.52002" x2="22.0413" y2="42.0781" gradientUnits="userSpaceOnUse">
<stop stop-color="#0A1931"/>
<stop offset="1" stop-color="#0B132A"/>
</linearGradient>
<linearGradient id="paint3_linear" x1="24.1331" y1="48" x2="24.1331" y2="29.7539" gradientUnits="userSpaceOnUse">
<stop stop-color="white"/>
<stop offset="1" stop-color="#F8F8F8"/>
</linearGradient>
<linearGradient id="paint4_linear" x1="22.4658" y1="13.5885" x2="22.4658" y2="32.7949" gradientUnits="userSpaceOnUse">
<stop stop-color="#FFE0CC"/>
<stop offset="1" stop-color="#FFEADB"/>
</linearGradient>
<linearGradient id="paint5_linear" x1="24.1335" y1="36.4762" x2="24.1335" y2="44.1588" gradientUnits="userSpaceOnUse">
<stop stop-color="#0A1931"/>
<stop offset="1" stop-color="#1E2D45"/>
</linearGradient>
</defs>
</svg>
