<svg width="48" height="48" viewBox="0 0 48 48" fill="none" xmlns="http://www.w3.org/2000/svg">
<circle cx="24" cy="24" r="24" fill="url(#paint0_linear)"/>
<mask id="mask0" mask-type="alpha" maskUnits="userSpaceOnUse" x="0" y="0" width="48" height="48">
<circle cx="24" cy="24" r="24" fill="url(#paint1_linear)"/>
</mask>
<g mask="url(#mask0)">
<path d="M25.854 6.59815C25.2155 3.79435 28.2429 1.64279 31.3606 3.11983C38.7027 6.59815 34.4422 11.8052 31.8086 11.2444C29.175 10.6837 26.4924 9.40194 25.854 6.59815Z" fill="url(#paint2_linear)"/>
<path d="M27.6313 24.27C24.2024 25.9236 23.7022 25.835 16.1393 19.6238C4.72706 10.2511 15.5008 1.67944 27.0727 6.24562C39.6022 11.7731 35.4046 20.5221 27.6313 24.27Z" fill="url(#paint3_linear)"/>
<path d="M27.9508 30.839C26.7804 33.4025 25.2906 34.6842 24.1202 34.6842C22.9497 34.6842 21.4599 33.4025 20.2895 30.839V27.6347C20.2895 27.6347 19.7687 27.6507 19.4116 27.6347C15.6781 27.4744 14.4306 21.446 15.0165 15.4162C15.4456 11.0003 19.1722 17.0603 25.2374 12.8146C24.998 17.4609 26.9932 16.9802 27.871 16.4195C31.8613 14.577 31.9411 22.1072 27.9973 21.5237C27.9982 21.6038 27.9828 24.7089 27.9508 30.839Z" fill="url(#paint4_linear)"/>
<path d="M20.2893 27.6345C21.7258 27.5277 23.5153 26.7213 25.6577 25.2152C25.0011 27.4846 23.2117 28.8251 20.2893 29.2367V27.6345Z" fill="#FC9F6A"/>
<path d="M18.9696 31.7709C18.9696 31.7709 19.2104 30.1019 19.7751 29.959C20.3398 29.8161 23.6403 29.7988 23.6432 30.4397C23.6432 30.5573 23.7568 31.8175 24.1332 31.8175C24.5095 31.8175 24.6063 30.5566 24.6069 30.4397C24.6099 29.7988 27.8912 29.8235 28.4749 29.959C29.0586 30.0945 29.2781 31.773 29.2781 31.773C29.2781 31.773 37.8971 35.8468 38.8042 37.5858C39.5845 39.0812 40.1697 42.5526 40.5599 47.9999H7.67993C8.07013 42.5526 8.65537 39.0812 9.43566 37.5858C10.3427 35.8476 18.9696 31.7709 18.9696 31.7709Z" fill="url(#paint5_linear)"/>
<path d="M23.4814 42.6951C23.4814 42.5683 23.5189 42.4444 23.589 42.339C23.6592 42.2336 23.7589 42.1515 23.8756 42.103C23.9922 42.0545 24.1206 42.0418 24.2444 42.0665C24.3683 42.0912 24.4821 42.1523 24.5713 42.2419C24.6606 42.3315 24.7214 42.4457 24.7461 42.57C24.7707 42.6943 24.7581 42.8232 24.7097 42.9403C24.6614 43.0574 24.5796 43.1575 24.4746 43.2279C24.3696 43.2983 24.2462 43.3359 24.1199 43.3359C23.9506 43.3359 23.7882 43.2684 23.6684 43.1482C23.5487 43.028 23.4814 42.865 23.4814 42.6951ZM23.4814 39.4907C23.4814 39.364 23.5189 39.2401 23.589 39.1347C23.6592 39.0293 23.7589 38.9471 23.8756 38.8986C23.9922 38.8501 24.1206 38.8374 24.2444 38.8622C24.3683 38.8869 24.4821 38.9479 24.5713 39.0376C24.6606 39.1272 24.7214 39.2414 24.7461 39.3657C24.7707 39.49 24.7581 39.6189 24.7097 39.736C24.6614 39.8531 24.5796 39.9532 24.4746 40.0236C24.3696 40.094 24.2462 40.1316 24.1199 40.1316C23.9506 40.1316 23.7882 40.0641 23.6684 39.9439C23.5487 39.8237 23.4814 39.6607 23.4814 39.4907ZM23.4814 36.2864C23.4814 36.1596 23.5189 36.0357 23.589 35.9303C23.6592 35.8249 23.7589 35.7428 23.8756 35.6943C23.9922 35.6458 24.1206 35.6331 24.2444 35.6578C24.3683 35.6826 24.4821 35.7436 24.5713 35.8332C24.6606 35.9228 24.7214 36.037 24.7461 36.1613C24.7707 36.2857 24.7581 36.4145 24.7097 36.5316C24.6614 36.6487 24.5796 36.7488 24.4746 36.8192C24.3696 36.8897 24.2462 36.9272 24.1199 36.9272C23.9506 36.9272 23.7882 36.8597 23.6684 36.7395C23.5487 36.6194 23.4814 36.4563 23.4814 36.2864V36.2864Z" fill="#664F4D"/>
<path d="M25.8103 11.3611C23.2565 17.7698 24.693 20.894 26.6882 24.6591C28.6833 28.4242 26.2093 31.949 26.2093 31.949C26.2093 31.949 29.0823 30.1065 29.0823 26.0209C29.0823 21.9354 26.2093 19.3719 28.6035 16.0074C30.9977 12.6428 28.3641 4.9524 25.8103 11.3611Z" fill="url(#paint6_linear)"/>
</g>
<defs>
<linearGradient id="paint0_linear" x1="24" y1="0" x2="24" y2="48" gradientUnits="userSpaceOnUse">
<stop stop-color="#509DFF"/>
<stop offset="1" stop-color="#64B1FF"/>
</linearGradient>
<linearGradient id="paint1_linear" x1="24" y1="0" x2="24" y2="48" gradientUnits="userSpaceOnUse">
<stop stop-color="#509DFF"/>
<stop offset="1" stop-color="#64B1FF"/>
</linearGradient>
<linearGradient id="paint2_linear" x1="30.6102" y1="2.64001" x2="30.6102" y2="11.2862" gradientUnits="userSpaceOnUse">
<stop stop-color="#0A1931"/>
<stop offset="1" stop-color="#0A1931"/>
</linearGradient>
<linearGradient id="paint3_linear" x1="23.1533" y1="4.98108" x2="23.1533" y2="25.1807" gradientUnits="userSpaceOnUse">
<stop stop-color="#0A1931"/>
<stop offset="1" stop-color="#0A1931"/>
</linearGradient>
<linearGradient id="paint4_linear" x1="23.0027" y1="10.4506" x2="22.8935" y2="34.6842" gradientUnits="userSpaceOnUse">
<stop stop-color="#F7B186"/>
<stop offset="1" stop-color="#FFC299"/>
</linearGradient>
<linearGradient id="paint5_linear" x1="24.1199" y1="47.9999" x2="24.1199" y2="29.8777" gradientUnits="userSpaceOnUse">
<stop stop-color="#F1F9FF"/>
<stop offset="1" stop-color="#FFFFFE"/>
</linearGradient>
<linearGradient id="paint6_linear" x1="26.9918" y1="8.88928" x2="26.9918" y2="31.949" gradientUnits="userSpaceOnUse">
<stop stop-color="#0A1931"/>
<stop offset="1" stop-color="#0A1931"/>
</linearGradient>
</defs>
</svg>
