<svg width="102" height="84" viewBox="0 0 102 84" fill="none" xmlns="http://www.w3.org/2000/svg">
<path d="M0.114825 9.27384C2.84036 12.0828 4.37003 15.1699 6.06654 18.6463C6.53933 19.5919 9.45952 17.7007 9.23703 16.7552C8.34706 13.0562 5.89965 9.80226 3.20193 7.18798C2.28415 6.35363 -0.608275 8.52293 0.114825 9.27384Z" fill="#F3E9E1"/>
<path d="M16.6348 8.94031C16.5513 12.3611 15.8282 15.5873 15.1886 18.9247C14.8826 20.3987 17.7194 18.6744 18.0253 17.8956C19.2768 14.6139 19.6384 10.8871 19.6106 7.38287C19.5549 6.35384 16.6626 7.91128 16.6348 8.94031Z" fill="#F3E9E1"/>
<path d="M23.4211 23.1241C25.5348 22.0951 27.6763 21.0661 29.8456 20.1205C30.6244 19.7867 31.6534 18.8689 31.4309 17.8955C31.2084 16.9499 29.9847 17.0056 29.2894 17.3115C27.1479 18.2849 25.0064 19.2861 22.8649 20.3151C22.114 20.7045 21.0572 21.5388 21.2797 22.5401C21.5022 23.4856 22.7259 23.4578 23.4211 23.1241Z" fill="#F3E9E1"/>
<path d="M9.12587 42.7309C9.48742 41.9521 8.12465 40.5059 6.0666 39.5325C4.00854 38.5591 2.03391 38.3923 1.67236 39.1988C1.31081 39.9775 2.67358 41.4237 4.73163 42.3971C6.78968 43.3705 8.76432 43.5096 9.12587 42.7309Z" fill="#D4BFA9"/>
<path d="M2.36768 37.8643C3.06296 36.5015 3.67482 35.0553 3.89731 33.5257C4.42573 30.2439 3.45233 26.4615 5.42695 23.8194C6.87315 21.9004 9.51523 21.233 11.8792 21.5111C14.7716 21.817 17.6084 23.4579 19.0268 25.9887C20.4452 28.5474 20.1948 32.0239 18.1924 34.1375C16.4959 35.9175 13.9095 36.5293 12.1017 38.198C11.1005 39.1436 10.433 40.3395 9.68213 41.5354L9.43178 41.8969C3.84166 41.4798 2.36768 37.8643 2.36768 37.8643Z" fill="#EBDBCD"/>
<path d="M12.1017 32.4967C11.8514 31.6345 11.1005 31.7179 10.4331 32.0239C10.2662 31.5511 9.9881 30.9392 9.48749 30.7723C8.93126 30.5777 8.31935 30.967 7.90218 31.3008C6.9844 32.0517 6.28912 33.1642 5.89976 34.2766C5.5104 35.3891 5.31574 36.585 4.95419 37.6974C4.81514 38.1424 5.5382 38.3371 5.67725 37.8643C6.12224 36.4181 6.28912 34.8607 7.01222 33.5257C7.42939 32.7748 8.04125 31.9404 8.81997 31.5511C9.07028 31.4398 9.26494 31.3842 9.43181 31.6623C9.57087 31.857 9.68214 32.0795 9.73777 32.302C9.73777 32.3298 9.7656 32.3298 9.7656 32.3576C9.65436 32.4132 9.59869 32.4689 9.51526 32.5245C8.76435 33.1363 7.79098 34.1932 7.8188 35.2222C7.84661 35.695 8.15251 36.0844 8.6253 36.1122C9.15372 36.14 9.68212 35.695 9.98804 35.3056C10.5999 34.5547 10.7668 33.5813 10.6 32.6635C10.7668 32.5523 10.9336 32.4967 11.1005 32.4967C11.5455 32.4689 11.3786 33.2198 11.323 33.4701C11.1005 34.3322 10.6555 35.0832 10.2105 35.8341C9.87681 36.3903 9.57087 37.0022 9.1537 37.5028C8.70871 38.059 8.06905 38.4484 7.485 38.8655C7.09564 39.1158 7.48504 39.7555 7.87441 39.5052C8.56969 39.0324 9.26496 38.5596 9.79338 37.8921C10.3218 37.169 10.7946 36.3625 11.2396 35.6116C11.7124 34.7494 12.4077 33.4979 12.1017 32.4967ZM9.90466 33.8316C9.82123 34.221 9.65432 34.6103 9.3762 34.9163C9.20933 35.0831 8.51407 35.7228 8.56969 35.1666C8.59751 34.8328 8.84777 34.4713 9.01464 34.1932C9.26494 33.8316 9.57092 33.4979 9.90466 33.2198C9.93247 33.4145 9.93247 33.6369 9.90466 33.8316Z" fill="#BFA990"/>
<path d="M4.73136 42.3694C2.86798 41.4795 1.58867 40.2558 1.61648 39.4492L0.809902 42.731C0.503975 43.3706 1.61648 44.5387 3.28517 45.3174C4.95386 46.0962 6.53913 46.2352 6.84506 45.5956C6.87287 45.5678 6.87283 45.5399 6.87283 45.4843L8.98654 42.8979C8.34687 43.4541 6.59473 43.2594 4.73136 42.3694Z" fill="#BFA990"/>
<path d="M65.3635 0L58.4907 0.509044L61.5453 42.2545L68.4181 41.7454L65.3635 0Z" fill="#DADAED"/>
<path d="M61.1636 5.91797L58.8091 6.10891L58.8728 6.61795L61.2273 6.42709L61.1636 5.91797Z" fill="#989BD7"/>
<path d="M61.5454 10.5635L59.1909 10.7543L59.2545 11.2635L61.609 11.0725L61.5454 10.5635Z" fill="#989BD7"/>
<path d="M61.9273 15.2729L59.5728 15.4638L59.6365 15.9729L61.991 15.782L61.9273 15.2729Z" fill="#989BD7"/>
<path d="M62.2451 19.918L59.8906 20.1089L59.9543 20.618L62.3088 20.4271L62.2451 19.918Z" fill="#989BD7"/>
<path d="M62.5635 24.6274L60.209 24.8184L60.2727 25.3274L62.6272 25.1366L62.5635 24.6274Z" fill="#989BD7"/>
<path d="M58.3 14.3184L53.9092 15.082L59.7 48.0456L64.091 47.2819L58.3 14.3184Z" fill="#FFADB2"/>
<path d="M58.3 14.3181L53.9092 15.0817L54.6091 8.78168L55.5001 8.59082L58.3 14.3181Z" fill="#EBDBCD"/>
<path d="M54.8636 11.7091L55.5 11.3273L56.0091 11.391L56.709 11.0728L55.5635 8.71826L54.6727 8.9092L54.3545 11.391L54.8636 11.7091Z" fill="#FF7A82"/>
<path d="M68.4819 41.1729C67.7182 41.0456 67.2091 40.3456 67.3364 39.582L70.7728 17.5638C70.8365 17.3729 70.8364 17.1819 70.9001 17.0547L72.8729 11.5183C73.1274 10.882 73.8274 10.5001 74.4638 10.6274L74.782 10.691C75.482 10.8183 75.9273 11.4547 75.9273 12.1547L75.4819 18.0092C75.4819 18.2001 75.4183 18.391 75.4183 18.582L70.2 40.2183C69.9455 40.8547 69.2455 41.3638 68.4819 41.1729Z" fill="#2B31BA"/>
<path d="M94.2543 56.2544H65.6816V65.7998H94.2543V56.2544Z" fill="#F8D7BC"/>
<path d="M95.4637 55.5543V56.2543H65.6182V65.7998H95.4637V66.4998H34.1182V55.4907H95.4637V55.5543Z" fill="#FF7A82"/>
<path d="M56.7091 82.918H98.9V67.5181H56.7091C54.6091 67.5181 52.9546 69.2363 52.9546 71.2726V79.0999C52.9546 81.2635 54.6091 82.918 56.7091 82.918Z" fill="#F8ECE2"/>
<path d="M31.7636 66.5635H100.809C101.064 66.5635 101.318 66.818 101.318 67.0725C101.318 67.3271 101.064 67.5816 100.809 67.5816H92.3454H60.6545C56.3908 67.5816 52.9545 71.018 52.9545 75.2816C52.9545 79.5453 56.3908 82.9816 60.6545 82.9816H99.7908H100.809C101.064 82.9816 101.318 83.2362 101.318 83.4907C101.318 83.7453 101.064 83.9999 100.809 83.9999H31.6999C27.4363 83.9999 24 80.5634 24 76.2998V74.3907C24.0636 69.9998 27.5 66.5635 31.7636 66.5635Z" fill="#2B31BA"/>
<path d="M98.9639 70H58.9365V70.509H98.9639V70Z" fill="#EBD0BE"/>
<path d="M98.9638 76.3638H56.0093V76.8728H98.9638V76.3638Z" fill="#EBD0BE"/>
<path d="M98.9639 79.6729H61.291V80.182H98.9639V79.6729Z" fill="#EBD0BE"/>
<path d="M98.9636 73.3726H57.2817V73.8817H98.9636V73.3726Z" fill="#EBD0BE"/>
<path d="M66.191 55.1726H39.9092V49.6362H66.191C66.9547 49.6362 67.5273 50.2089 67.5273 50.9726V53.7726C67.5273 54.5362 66.9547 55.1726 66.191 55.1726Z" fill="#F8E7D8"/>
<path d="M82.5453 49.2544H38.8272C38.7635 49.2544 38.6362 49.3181 38.6362 49.4453C38.6362 49.5726 38.6999 49.6363 38.8272 49.6363H64.7271C66.2544 49.6363 67.4635 50.909 67.4635 52.3726C67.4635 53.8999 66.1908 55.109 64.7271 55.109H38.8272C38.7635 55.109 38.6362 55.1726 38.6362 55.2998C38.6362 55.3635 38.6999 55.4908 38.8272 55.4908H82.5453C84.0726 55.4908 85.2817 54.218 85.2817 52.7544V51.9272C85.2817 50.4635 84.0726 49.2544 82.5453 49.2544Z" fill="#FF5856"/>
<path d="M55.2452 26.1543H74.4635C74.9726 26.1543 75.3543 26.5998 75.2907 27.1088L72.4907 49.2542H57.0908L54.4181 27.1088C54.3544 26.5998 54.7361 26.1543 55.2452 26.1543Z" fill="#AAACE3"/>
<path d="M74.8456 10.4362L74.5274 10.3725C73.8274 10.2453 73.1275 10.6271 72.873 11.2635L70.8365 16.9271C70.7729 16.9907 70.7729 17.0544 70.7729 17.1817C71.4093 17.6908 72.2366 18.1362 73.1275 18.2635C73.9547 18.3907 74.782 18.3271 75.482 18.1362C75.482 18.0726 75.5457 18.0089 75.5457 17.8817L75.9911 11.8998C76.0547 11.1998 75.5456 10.6271 74.8456 10.4362Z" fill="#D7D7E6"/>
<path d="M74.909 1.90892C75.1 1.5271 75.609 1.5271 75.7999 1.90892C76.1181 2.54529 76.5 3.30892 76.8181 3.81801C77.3272 4.77256 77.6454 6.93618 77.3273 8.018C77.0091 9.29072 76.1181 10.5634 75.8636 11.0089C75.8 11.0725 75.7362 11.1362 75.609 11.1998C75.3544 11.2635 74.8454 11.3907 74.1454 11.2634C73.1909 11.0089 73.1272 10.4361 73.1272 10.4361C73.1272 10.4361 72.6181 8.3998 72.6818 7.12707C72.7454 5.85435 73.4454 4.26342 73.7636 4.00888C73.9545 3.69069 74.5272 2.67256 74.909 1.90892Z" fill="#C7645D"/>
<path d="M100.809 82.918H99.7907H96.4181C96.1636 83.2998 95.909 83.618 95.5908 83.8725H100.745C101 83.8725 101.254 83.618 101.254 83.3635C101.254 83.1726 101.064 82.918 100.809 82.918Z" fill="#2B31BA"/>
<path d="M100.809 67.5182C101.064 67.5182 101.318 67.2636 101.318 67.009C101.318 66.7545 101.064 66.5 100.809 66.5H97.3091V67.4545L100.809 67.5182Z" fill="#2B31BA"/>
</svg>
