<svg width="611" height="324" viewBox="0 0 611 324" fill="none" xmlns="http://www.w3.org/2000/svg">
<path d="M147.436 166.161C158.638 158.38 200.318 144.364 219.758 138.329H241.593C254.551 141.542 283.664 149.265 296.45 154.45C309.236 159.634 332.546 190.334 341.904 204.592L331.721 224.096C305.805 249.673 326.686 272.255 340.509 280.608C319.775 280.608 310.848 272.831 308.976 268.943C311.05 280.695 312.72 309.555 313.296 322.517H160.818V298.96H102.662C97.3028 240.308 133.433 175.888 147.436 166.161Z" fill="url(#paint0_linear)"/>
<ellipse cx="232.322" cy="156.834" rx="25.9623" ry="18.5052" fill="#FFAA29"/>
<path d="M213.047 154.923C216.417 135.542 215.23 117.608 214.703 111.42C215.44 105.626 246.087 116.477 260.83 122.27C252.511 126.484 250.256 147.55 250.168 157.557C250.431 160.848 248.378 167.826 238.058 169.406C220.787 171.408 214.188 160.585 213.047 154.923Z" fill="url(#paint1_linear)"/>
<mask id="mask0" mask-type="alpha" maskUnits="userSpaceOnUse" x="213" y="109" width="48" height="61">
<path d="M213.047 154.923C216.417 135.542 215.23 117.608 214.703 111.42C215.44 105.626 246.087 116.477 260.83 122.27C252.511 126.484 250.256 147.55 250.168 157.557C250.431 160.848 248.378 167.826 238.058 169.406C220.787 171.408 214.188 160.585 213.047 154.923Z" fill="#BABABA"/>
</mask>
<g mask="url(#mask0)">
<path opacity="0.1" d="M255.729 142.377C234.975 139.138 219.587 120.887 214.488 112.166C226.334 109.722 252.969 106.3 264.745 112.166C276.521 118.033 263.641 134.751 255.729 142.377Z" fill="black"/>
</g>
<path d="M249.406 125.819C283.495 124.336 284.469 77.7075 280.695 54.5783C219.105 2.36252 194.376 43.3911 189.71 70.4324C195.405 89.5123 215.317 127.301 249.406 125.819Z" fill="url(#paint2_linear)"/>
<path d="M205.405 7.97163C195.598 4.87954 175.152 3.33352 171.826 21.8862C171.826 33.8814 200.768 30.8426 205.405 7.97163Z" fill="#30235B"/>
<path d="M217.213 69.5852L231.103 81.5175L229.595 88.4765L216.641 77.1041L217.213 69.5852Z" fill="#0B132A"/>
<path d="M203.09 80.3152C214.947 90.363 215.715 106.052 214.617 112.641C210.775 111.612 200.043 104.941 187.857 86.4921C168.425 46.795 191.837 17.1045 205.972 7.22139C243.848 -14.8097 294.487 19.3693 285.635 45.5184C276.784 71.6674 234.447 65.6278 218.734 55.6074C222.028 65.4905 219.009 75.2364 217.088 78.8739C209.677 61.5784 188.269 67.7554 203.09 80.3152Z" fill="#0A1931"/>
<path d="M228.472 2.11962C253.694 -5.12669 269.055 7.93457 273.583 15.371C268.496 12.6313 254.398 8.79563 238.702 15.371C213.882 26.7772 208.46 51.0993 208.851 61.8346L192.417 60.6604V54.6218C193.926 40.1404 203.25 9.36593 228.472 2.11962Z" fill="white"/>
<ellipse cx="199.147" cy="76.5532" rx="19.29" ry="23.605" fill="white"/>
<ellipse cx="199.147" cy="76.5532" rx="19.29" ry="23.605" fill="white"/>
<ellipse cx="199.148" cy="76.5532" rx="9.2077" ry="11.2674" fill="#19CA8A"/>
<path opacity="0.5" d="M283.432 72.951C276.282 70.7405 268.582 75.4528 265.625 78.0853C260.249 83.2196 268.401 96.275 277.826 90.2611C285.366 85.45 284.705 76.7164 283.432 72.951Z" fill="#E6FCFF"/>
<path fill-rule="evenodd" clip-rule="evenodd" d="M262.596 76.5355C272.937 66.98 282.744 68.6137 286.356 70.6249C288.445 76.1594 286.356 92.3322 274.822 93.7659C265.595 94.913 262.433 87.7778 262.006 84.0669C260.252 82.65 259.087 83.8713 258.724 84.6591C259.027 94.9726 250.738 101.949 241.842 100.331C234.725 99.0373 231.627 91.9241 230.968 88.5293H229.496V82.4947C238.763 73.4185 251.566 75.6432 256.809 77.89C258.188 76.8064 261.241 76.5355 262.596 76.5355ZM282.889 73.5985C275.739 71.388 269.206 75.1754 266.25 77.8079C260.874 82.9422 267.935 95.5205 277.8 90.2609C283.708 87.1113 284.162 77.3639 282.889 73.5985ZM242.46 80.3287C246.364 79.0578 254.325 78.2074 254.935 84.9734C255.698 93.4309 248.004 99.6701 241.282 96.3425C236.414 93.9332 234.42 88.9942 234.42 85.8746C234.42 83.3789 239.78 81.1375 242.46 80.3287Z" fill="#0B132A"/>
<path opacity="0.5" d="M254.961 84.9736C254.351 78.2076 246.39 79.0579 242.486 80.3289C239.806 81.1377 234.446 83.3791 234.446 85.8748C234.446 88.9944 236.44 93.9334 241.307 96.3427C248.03 99.6702 255.723 93.4311 254.961 84.9736Z" fill="#E6FCFF"/>
<path d="M102.613 299.036C108.61 325.768 144.222 325.822 161.279 322.508L292.753 303.508C294.448 304.981 298.507 308.863 301.183 312.613C303.859 316.364 306.312 313.727 307.204 311.94C311.057 316.116 313.894 314.129 314.831 312.613C318.149 316.792 320.941 315.333 321.922 314.082C326.525 317.508 327.687 314.53 327.693 312.613C321.413 299.313 310.148 285.982 305.3 280.979L272.519 283.981L166.005 273.119C145.798 258.938 95.1168 265.621 102.613 299.036Z" fill="url(#paint3_linear)"/>
<path d="M357.351 258.59C351.412 277.773 343.225 281.125 339.874 280.403C304.601 256.795 319.748 232.602 331.73 223.458L362.963 159.137C358.441 155.6 353.403 144.535 353.919 137.557C354.333 131.974 358.14 131.788 359.991 132.392C360.508 126.608 364.685 126.792 366.709 127.607C368.466 121.301 373.556 122.653 375.882 124.118C376.192 115.434 382.212 116.623 385.183 118.303L390.399 132.392C392.53 132.688 397.472 133.372 400.194 133.744C403.597 134.208 407.928 134.827 405.762 139.622C404.03 143.459 395.245 156.588 391.069 162.673C382.304 186.652 363.291 239.407 357.351 258.59Z" fill="url(#paint4_linear)"/>
<path d="M267.445 315.615H336.224V315.615C336.224 319.427 333.134 322.517 329.322 322.517H274.347C270.535 322.517 267.445 319.427 267.445 315.615V315.615Z" fill="#B4B4B4"/>
<path d="M358.153 230.68C358.634 229.526 359.761 228.775 361.011 228.775H477.163C479.374 228.775 480.872 231.023 480.022 233.063L443.532 320.611C443.051 321.765 441.924 322.517 440.674 322.517H324.522C322.312 322.517 320.813 320.268 321.663 318.228L358.153 230.68Z" fill="url(#paint5_linear)"/>
<path d="M166.046 273.087L169.13 248.802" stroke="#30235B" stroke-width="0.619401"/>
<path d="M308.883 269.086C308.42 266.236 307.634 259.346 308.189 254.592" stroke="#30235B" stroke-width="0.619401"/>
<path d="M308.045 259.908L305.391 254.53" stroke="#30235B" stroke-width="0.619401"/>
<path d="M307.106 311.718L298.491 300.842" stroke="#30235B" stroke-width="0.619401"/>
<path d="M314.731 312.256L301.286 294.803" stroke="#30235B" stroke-width="0.619401"/>
<path d="M321.799 313.855L305.087 289.771" stroke="#30235B" stroke-width="0.619401"/>
<path d="M359.987 132.497C360.447 134.892 361.949 140.554 364.274 144.041" stroke="#30235B" stroke-width="0.619401"/>
<path d="M375.91 124.169C376.615 126.64 378.448 132.214 380.147 134.739" stroke="#30235B" stroke-width="0.619401"/>
<path d="M366.616 127.76C367.445 130.45 369.504 136.365 371.106 138.502" stroke="#30235B" stroke-width="0.619401"/>
<path d="M390.333 132.383L392.896 139.884" stroke="#30235B" stroke-width="0.619401"/>
<ellipse rx="7.85843" ry="11.3792" transform="matrix(0.940264 0.340447 -0.340305 0.940315 405.059 277.877)" fill="white"/>
<rect width="126.379" height="10.3507" transform="matrix(-0.459669 0.88809 -0.888002 -0.45984 608.138 202.47)" fill="#E0E0E0"/>
<rect x="518.87" y="306.896" width="58.4202" height="15.621" rx="3.09701" fill="#30235B"/>
<rect width="67.8766" height="10.3517" transform="matrix(-0.763333 -0.646005 0.645827 -0.763484 601.453 203.485)" fill="#E0E0E0"/>
<rect width="20.025" height="3.56597" transform="matrix(-0.951725 0.306951 -0.30682 -0.951768 550.743 155.127)" fill="#E0E0E0"/>
<ellipse cx="603.769" cy="199.316" rx="7.23054" ry="7.23225" fill="#30235B"/>
<path d="M546.221 149.901L556.351 151.782L549.657 159.616L546.221 149.901Z" fill="#30235B"/>
<path d="M514.673 146.523C517.006 140.662 523.647 137.802 529.508 140.137V140.137C535.369 142.471 538.229 149.114 535.896 154.976L529.445 171.187L508.222 162.735L514.673 146.523Z" fill="#30235B"/>
<path d="M521.401 163.064C497.847 153.813 482.176 174.536 476.643 185.511C492.998 208.833 522.956 211.229 536.533 210.055C541.303 198.246 544.956 172.315 521.401 163.064Z" fill="#30235B"/>
<path d="M45.2148 250.9C30.0588 260.178 25.2896 251.717 24.7996 246.326C24.7996 238.484 24.7996 231.95 14.5105 220.352C-10.3142 192.907 -2.4748 149.127 31.8225 146.35C66.1197 143.573 56.1572 165.3 44.0715 179.349C32.0097 193.37 39.6316 197.628 57.6831 207.713L57.7904 207.773C81.3085 221.985 61.7101 234.727 50.1143 237.014C38.5186 239.301 48.4811 246.326 45.2148 250.9Z" fill="url(#paint6_linear)"/>
<path d="M195.252 98.9657C189.882 97.8376 179.229 90.7918 180.19 74.6043" stroke="#30235B" stroke-width="0.949425"/>
<path d="M270.914 12.1525C267.991 7.8115 261.082 1.39543 247.158 0.737427" stroke="#30235B" stroke-width="0.949425"/>
<path d="M79.591 289.951C80.8731 275.261 67.3002 271.725 58.9976 271.725C57.9992 271.725 57.147 272.409 56.8575 273.364C56.3845 274.926 57.5821 276.501 59.2092 276.623C66.5407 277.175 76.426 280.295 74.6025 289.951C72.8329 299.322 64.7135 301.088 58.9647 300.691C57.3803 300.581 55.8953 301.761 55.8953 303.349C55.8953 304.532 56.7319 305.559 57.9086 305.683C65.6643 306.497 78.3354 304.338 79.591 289.951Z" fill="url(#paint7_linear)"/>
<path d="M58.2973 266.55V319.42C58.2973 321.13 56.9107 322.517 55.2003 322.517H13.4715C11.7611 322.517 10.3745 321.13 10.3745 319.42L10.3745 266.55C10.3745 264.84 11.7611 263.453 13.4715 263.453H55.2003C56.9107 263.453 58.2973 264.84 58.2973 266.55Z" fill="url(#paint8_linear)"/>
<path d="M331.688 223.401L341.275 203.737" stroke="#30235B" stroke-width="0.949425"/>
<path d="M251.571 281.736C248.384 292.495 250.243 304.649 251.571 309.381L260.433 308.124C258.585 294.025 259.663 285.31 260.433 282.715L251.571 281.736Z" fill="#30235B"/>
<rect width="16.7602" height="4.34628" rx="2.17314" transform="matrix(0.994488 0.104847 -0.104798 0.994493 248.06 277.128)" fill="url(#paint9_linear)"/>
<defs>
<linearGradient id="paint0_linear" x1="234.409" y1="108.044" x2="222.009" y2="356.342" gradientUnits="userSpaceOnUse">
<stop stop-color="#FFAA29"/>
<stop offset="1" stop-color="#FFDD5B"/>
</linearGradient>
<linearGradient id="paint1_linear" x1="234.275" y1="40.8353" x2="232.058" y2="151.118" gradientUnits="userSpaceOnUse">
<stop stop-color="#FFEFE0"/>
<stop offset="1" stop-color="#FFBE99"/>
</linearGradient>
<linearGradient id="paint2_linear" x1="235.955" y1="29.4214" x2="235.955" y2="125.861" gradientUnits="userSpaceOnUse">
<stop stop-color="#FFEFE0"/>
<stop offset="1" stop-color="#FFBE99"/>
</linearGradient>
<linearGradient id="paint3_linear" x1="214.778" y1="230.097" x2="214.778" y2="313.95" gradientUnits="userSpaceOnUse">
<stop offset="0.0677966" stop-color="#FFEFE0"/>
<stop offset="1" stop-color="#FFBE99"/>
</linearGradient>
<linearGradient id="paint4_linear" x1="331.617" y1="107.027" x2="412.993" y2="202.241" gradientUnits="userSpaceOnUse">
<stop stop-color="#FFEFE0"/>
<stop offset="1" stop-color="#FFBE99"/>
</linearGradient>
<linearGradient id="paint5_linear" x1="434.28" y1="158.421" x2="388.632" y2="347.731" gradientUnits="userSpaceOnUse">
<stop offset="0.0171777" stop-color="white"/>
<stop offset="1" stop-color="#D7D7D7"/>
</linearGradient>
<linearGradient id="paint6_linear" x1="-23.4409" y1="262.845" x2="68.8624" y2="146.129" gradientUnits="userSpaceOnUse">
<stop stop-color="#ECECEC"/>
<stop offset="1" stop-color="#F5F5F5" stop-opacity="0"/>
</linearGradient>
<linearGradient id="paint7_linear" x1="87.7188" y1="278.876" x2="55.8953" y2="279.574" gradientUnits="userSpaceOnUse">
<stop stop-color="white"/>
<stop offset="1" stop-color="#CCCCCC"/>
</linearGradient>
<linearGradient id="paint8_linear" x1="34.3359" y1="245.623" x2="34.3359" y2="340.832" gradientUnits="userSpaceOnUse">
<stop stop-color="white"/>
<stop offset="1" stop-color="#CCCCCC"/>
</linearGradient>
<linearGradient id="paint9_linear" x1="8.0615" y1="-0.849905" x2="7.95004" y2="4.41732" gradientUnits="userSpaceOnUse">
<stop stop-color="#7F67CE"/>
<stop offset="1" stop-color="#30235B"/>
</linearGradient>
</defs>
</svg>
