<svg id="Layer_1" data-name="Layer 1" xmlns="http://www.w3.org/2000/svg" viewBox="0 0 1024 1024"><defs><style>.cls-1{fill:#f05757;}.cls-2{fill:none;stroke:#fff;stroke-miterlimit:10;stroke-width:12px;}</style></defs><title>Artboard 1</title><path class="cls-1" d="M949.9,438.13c0-241.93-196.12-438-438-438s-438,196.11-438,438c0,210.58,148.65,386.31,346.71,428.35L514.6,1024,604,866.29C801.62,824,949.9,648.44,949.9,438.13Z"/><rect class="cls-2" x="336.31" y="410.29" width="58.15" height="238.56"/><rect class="cls-2" x="482.43" y="410.29" width="58.15" height="238.56"/><rect class="cls-2" x="628.54" y="410.29" width="58.15" height="238.56"/><path class="cls-2" d="M287.44,350.66H735.56c6.52,0,9.17-8.61,3.83-12.46L510.12,173a6.53,6.53,0,0,0-7.78.09L283.49,338.28C278.3,342.21,281,350.66,287.44,350.66Z"/><line class="cls-2" x1="735.14" y1="648.85" x2="287.86" y2="648.85"/><line class="cls-2" x1="735.14" y1="410.29" x2="287.86" y2="410.29"/></svg>