<svg width="18" height="18" viewBox="0 0 18 18" fill="none" xmlns="http://www.w3.org/2000/svg">
<path d="M9 1.5C4.86 1.5 1.5 4.86 1.5 9C1.5 13.14 4.86 16.5 9 16.5C13.14 16.5 16.5 13.14 16.5 9C16.5 4.86 13.14 1.5 9 1.5ZM12 9.75H9.75V12C9.75 12.4125 9.4125 12.75 9 12.75C8.5875 12.75 8.25 12.4125 8.25 12V9.75H6C5.5875 9.75 5.25 9.4125 5.25 9C5.25 8.5875 5.5875 8.25 6 8.25H8.25V6C8.25 5.5875 8.5875 5.25 9 5.25C9.4125 5.25 9.75 5.5875 9.75 6V8.25H12C12.4125 8.25 12.75 8.5875 12.75 9C12.75 9.4125 12.4125 9.75 12 9.75Z" fill="#1461F5"/>
</svg>
