<svg width="24" height="28" viewBox="0 0 24 28" fill="none" xmlns="http://www.w3.org/2000/svg">
<path d="M17.3333 15.3333H13.3333C12.6 15.3333 12 15.9333 12 16.6667V20.6667C12 21.4 12.6 22 13.3333 22H17.3333C18.0667 22 18.6667 21.4 18.6667 20.6667V16.6667C18.6667 15.9333 18.0667 15.3333 17.3333 15.3333ZM17.3333 1.99999V3.33332H6.66667V1.99999C6.66667 1.26666 6.06667 0.666656 5.33333 0.666656C4.6 0.666656 4 1.26666 4 1.99999V3.33332H2.66667C1.18667 3.33332 0.0133333 4.53332 0.0133333 5.99999L0 24.6667C0 26.1333 1.18667 27.3333 2.66667 27.3333H21.3333C22.8 27.3333 24 26.1333 24 24.6667V5.99999C24 4.53332 22.8 3.33332 21.3333 3.33332H20V1.99999C20 1.26666 19.4 0.666656 18.6667 0.666656C17.9333 0.666656 17.3333 1.26666 17.3333 1.99999ZM20 24.6667H4C3.26667 24.6667 2.66667 24.0667 2.66667 23.3333V9.99999H21.3333V23.3333C21.3333 24.0667 20.7333 24.6667 20 24.6667Z" fill="white"/>
</svg>
