<svg width="205" height="192" viewBox="0 0 205 192" fill="none" xmlns="http://www.w3.org/2000/svg">
<path d="M30.1527 112.566C30.1527 109.321 28.0127 106.56 27.0462 103.453C19.1074 76.4612 6.95751 94.2718 8.54528 78.6703C9.85691 65.9681 -8.36789 59.8242 -9.88663 65.3468C-11.0602 69.765 -16.859 72.1812 -19.6203 68.4534C-23.141 63.7591 -21.7604 57.0628 -24.8669 52.1615C-26.6617 49.3311 -30.0444 47.3291 -33.5651 47.053C-36.7406 46.7769 -40.0542 47.7433 -43.1607 46.9149C-48.6834 45.3962 -51.5137 38.769 -57.1745 38.0096C-57.6577 37.9406 -58.1409 37.9406 -58.6242 38.1477C-59.5216 38.4929 -59.8668 39.5284 -60.0739 40.4258C-60.6952 42.842 -61.2474 45.5343 -59.7977 47.6053C-58.4861 49.4692 -55.8628 50.2285 -54.6202 52.0924C-53.3776 53.9563 -53.7918 56.4415 -54.5512 58.5125C-55.3106 60.5835 -56.4151 62.7236 -56.277 64.9326C-56.139 68.1082 -53.5157 70.8695 -50.4782 72.1811C-47.3717 73.5618 -43.9201 73.7689 -40.4684 73.7689C-39.571 73.7689 -38.6735 73.7689 -37.8451 74.045C-35.1528 74.9425 -34.5315 78.6012 -36.2574 80.7413C-36.9477 81.5697 -37.8451 82.26 -38.3284 83.1574C-39.64 85.5736 -37.2929 88.542 -34.5315 89.3704C-31.7702 90.1298 -28.8018 89.5085 -25.9024 89.1634C-23.003 88.8182 -19.7584 88.8872 -17.6184 90.6821C-14.9261 93.0292 -15.2022 97.0332 -13.6144 100.209C-11.9576 103.591 -8.16079 105.662 -4.29493 106.56C-0.429058 107.457 3.57488 107.319 7.57881 107.526C15.9319 107.94 24.2849 109.735 31.4643 113.739" fill="#4DC591"/>
<path opacity="0.2" d="M-40.0925 85.5643C-37.8835 93.0889 -31.0492 99.44 -24.9052 104.41C-18.4161 109.657 -11.1676 114.006 -3.85002 118.148C11.4754 126.846 27.4911 134.923 39.3649 147.763C39.71 148.109 40.2623 147.625 39.9171 147.28C29.4931 135.061 14.6509 127.26 0.430046 119.46C-6.74942 115.456 -13.9979 111.452 -20.6251 106.619C-28.0807 101.235 -37.0551 94.1935 -39.8164 85.4953C-39.8854 85.3572 -40.1616 85.4262 -40.0925 85.5643Z" fill="#444472"/>
<path d="M135.252 140.653C138.566 142.31 142.294 142.517 146.022 142.655C153.96 142.931 162.037 142.655 169.631 140.446C171.564 139.893 173.566 139.134 175.154 137.961C176.81 136.718 178.053 134.923 178.191 132.852C178.398 130.022 176.603 127.537 175.43 124.982C175.085 124.223 174.739 123.325 174.947 122.497C175.43 120.564 178.122 120.288 180.124 120.564C181.781 120.771 183.438 120.909 185.094 121.116C187.165 121.323 189.651 121.393 190.824 119.667C191.86 118.217 191.307 116.077 189.996 114.903C188.684 113.73 186.889 113.316 185.094 113.247C183.3 113.178 181.574 113.454 179.779 113.316C179.365 113.316 178.95 113.247 178.605 112.97C177.777 112.349 178.191 111.038 178.743 110.209C180.055 108.414 182.126 107.103 184.335 106.826C186.544 106.55 188.684 107.103 190.893 107.31C193.102 107.517 195.518 107.31 197.106 105.722C198.625 104.203 199.039 101.925 198.97 99.7851C198.832 96.7476 194.621 92.8818 190.617 95.367C188.408 96.7476 186.268 98.1283 184.128 99.509C182.747 100.406 180.676 101.235 179.572 99.9232C178.743 98.8877 179.296 97.2999 180.124 96.1954C183.162 91.8463 188.201 89.4991 192.274 86.0475C198.487 80.7319 188.891 71.4814 180.952 76.728C178.881 78.1086 177.156 80.0416 175.913 82.1816C174.463 84.7358 173.704 87.6352 171.771 89.7753C171.081 90.5346 170.183 91.225 169.148 91.4321C168.112 91.5701 166.939 91.0869 166.593 90.0514C166.248 89.0159 166.87 87.9804 167.284 86.9449C168.388 83.9765 167.353 80.5938 165.489 78.1086C164.384 76.6589 162.728 75.3473 160.933 75.4853C158.724 75.6924 157.205 77.9015 156.86 80.0416C156.515 82.1816 156.998 84.3907 156.998 86.5997C157.067 88.8088 156.515 91.225 154.72 92.4676C154.444 92.6747 154.098 92.8127 153.753 92.8127C153.477 92.8127 153.201 92.6747 152.925 92.4676C151.199 91.225 150.647 89.0159 149.68 87.152C148.714 85.2881 146.781 83.4242 144.779 84.0455C143.122 84.5978 142.432 86.5307 142.501 88.2565C142.639 89.9824 143.329 91.5701 143.674 93.296C144.641 98.4735 141.051 104.065 136.012 105.308C134.562 105.653 133.043 105.722 131.732 106.274C129.454 107.172 127.797 109.381 127.037 111.728C126.278 114.075 126.209 116.56 126.209 119.045C126.278 125.396 127.314 132.576 132.422 136.373" fill="url(#paint0_linear)"/>
<g opacity="0.41">
<path opacity="0.41" d="M188.822 85.219C188.546 85.288 188.339 85.426 188.062 85.4951C188.339 85.357 188.546 85.288 188.822 85.1499C188.822 85.0809 188.891 85.219 188.822 85.219Z" fill="#444472"/>
<path opacity="0.41" d="M185.646 86.2544C186.475 86.0473 187.234 85.7712 188.063 85.4951C187.303 85.8402 186.475 86.0473 185.646 86.2544Z" fill="#444472"/>
<path opacity="0.47" d="M147.333 93.9862C144.709 103.789 142.224 113.868 144.778 123.878C148.299 119.045 152.027 114.351 155.962 109.795C156.514 101.166 159.206 92.9507 161.83 84.7357C161.83 84.6667 161.968 84.6667 161.968 84.8048C159.759 92.7436 157.688 100.613 156.859 108.828C162.865 101.925 169.354 95.5049 176.327 89.7061C176.258 89.6371 176.258 89.5681 176.258 89.499C178.053 85.4261 180.538 81.7673 183.644 78.5918C183.644 78.5918 183.713 78.5918 183.713 78.6608C180.745 81.7673 178.467 85.288 176.81 89.2919C177.983 88.3255 179.157 87.359 180.4 86.4616C180.4 86.3235 180.4 86.2545 180.538 86.2545H180.607C182.609 84.6667 184.68 83.148 186.82 81.6983C186.82 81.6983 186.889 81.6983 186.889 81.7673C184.818 83.217 182.816 84.7357 180.883 86.2545C182.402 86.4616 184.058 86.4616 185.646 86.1854C183.989 86.5996 182.402 86.7377 180.538 86.5306C174.187 91.57 168.319 97.1617 162.865 103.099C171.356 106.343 179.985 102.892 188.546 101.856C188.615 101.856 188.615 101.925 188.546 101.925C179.985 103.168 171.149 106.964 162.589 103.72C162.52 103.72 162.451 103.651 162.451 103.582C160.449 105.722 158.516 108 156.652 110.209C156.652 110.416 156.514 110.485 156.376 110.554C154.788 112.487 153.201 114.42 151.613 116.422C160.518 119.114 169.561 120.081 178.743 118.562C178.812 118.562 178.812 118.631 178.743 118.631C169.561 120.495 160.104 120.081 151.268 116.836C148.092 120.909 145.055 125.12 142.086 129.331C150.784 132.921 160.173 135.613 169.285 131.816C169.354 131.816 169.354 131.886 169.285 131.886C160.104 135.889 150.577 133.335 141.672 129.815C140.775 131.126 139.808 132.438 138.911 133.818C138.565 134.371 137.668 133.818 138.013 133.266C140.015 130.298 142.086 127.398 144.157 124.499C141.189 114.144 144.019 103.996 146.988 93.9862C147.195 93.8481 147.333 93.9172 147.333 93.9862Z" fill="#444472"/>
</g>
<path d="M18.0145 140.768C18.6222 136.859 21.5032 133.854 23.0845 130.27C36.9376 98.9391 46.7072 122.733 47.9704 103.551C49.021 87.8853 70.0036 83.718 70.6017 90.6771C71.0234 96.1823 76.8637 100.145 80.6081 96.1509C85.3553 91.1006 85.1316 82.7685 89.4868 77.3232C92.0109 74.2143 96.0681 72.3947 99.9302 72.6147C103.447 72.8275 106.861 74.6261 110.393 74.1487C116.681 73.2878 121.026 65.7294 127.334 65.8494C127.873 65.8332 128.424 65.914 128.859 66.2546C129.77 66.8816 129.978 68.1841 130.022 69.3589C130.235 72.3325 130.355 75.7599 128.319 78.0229C126.549 80.0568 123.557 80.5181 121.842 82.5946C120.072 84.6285 120.103 87.7226 120.475 90.3819C120.901 93.0839 121.672 95.7931 121.16 98.4614C120.389 102.243 117.054 105.155 113.399 106.237C109.799 107.362 105.913 106.949 102.252 106.36C101.302 106.229 100.298 106.056 99.286 106.228C96.1656 106.852 94.7752 111.2 96.2056 114.076C96.7343 115.192 97.639 116.164 97.9856 117.4C98.9124 120.582 95.8068 123.762 92.6628 124.192C89.4763 124.677 86.4115 123.327 83.3512 122.42C80.2909 121.513 76.7812 120.955 74.1043 122.804C70.6991 125.135 70.2207 130.11 67.9374 133.583C65.4956 137.37 60.9537 139.248 56.5689 139.584C52.2384 139.961 47.8639 139.164 43.5245 138.658C34.5243 137.831 26.5828 137.221 18.0145 140.768Z" fill="#4DC591"/>
<path d="M8.32108 138.656C14.8683 131.668 21.4846 124.682 26.5913 116.578C34.776 103.598 38.702 88.0282 37.7935 72.6947C37.6691 71.0368 37.0656 68.8917 35.4088 68.878C34.6495 68.8717 34.0248 69.2807 33.4685 69.7594C32.0092 70.9209 30.6867 72.2216 29.5702 73.6621C28.8023 74.6913 27.8261 75.8568 26.5847 75.7085C25.6879 75.632 25.0729 74.8675 24.665 74.1047C22.6244 70.4289 23.8368 65.7446 26.075 62.2423C28.3131 58.74 31.5125 55.867 33.7513 52.2957C35.99 48.7244 37.1334 44.0394 35.0232 40.4321C34.4784 39.5301 33.6568 38.6949 32.6214 38.6863C32.1382 38.6823 31.7223 38.8859 31.3064 39.0896C26.7315 41.3299 25.0284 46.9077 22.8501 51.515C22.639 51.9965 22.2893 52.5459 21.8044 52.749C21.0427 53.0188 20.2885 52.3913 19.8105 51.766C17.3551 48.1558 19.5345 43.4104 21.3625 39.4214C23.8232 34.057 25.6689 27.9282 23.99 22.2533C23.5861 21.0073 22.9751 19.7596 21.8763 19.0602C19.2657 17.5198 15.9294 20.2535 15.3525 23.2173C14.7757 26.1811 15.717 29.2264 15.7608 32.2644C15.7545 33.0237 15.6792 33.7825 15.1224 34.3301C14.2181 35.1511 12.635 34.5857 12.0223 33.5451C11.4096 32.5045 11.4895 31.1934 11.6378 29.952C12.4772 20.294 12.9795 9.66664 6.96767 2.02291C6.35269 1.25842 5.66867 0.493366 4.70453 0.209236C2.84469 -0.289421 1.03788 1.14536 0.126748 2.79467C-2.32536 7.12361 -1.19701 12.5868 0.767146 17.1594C2.7313 21.732 5.52611 26.0354 6.45252 30.8756C6.78338 32.6042 6.83697 34.4686 6.13351 36.0506C5.43004 37.6326 3.76243 38.9305 2.0378 38.7781C-0.238508 38.5521 -1.66929 36.2621 -2.61857 34.1832C-3.43321 32.5196 -4.24785 30.856 -5.06307 29.2614C-5.53828 28.291 -6.21945 27.1807 -7.32394 27.1716C-8.70399 27.0911 -9.40917 28.8802 -9.42118 30.3299C-9.45492 34.4027 -7.20835 38.2183 -4.33306 41.1416C-1.52681 44.0643 1.90586 46.3709 5.05956 49.0204C5.88221 49.7176 6.7043 50.4838 7.17951 51.4542C7.79049 52.702 7.70888 54.2201 7.42132 55.5984C6.7087 58.2849 4.96349 60.6176 2.53596 61.9782C0.732581 62.9988 -1.34235 63.4649 -2.94093 64.7633C-5.65086 66.881 -6.37606 71.0862 -4.46721 74.0015C-2.83162 76.5693 0.265617 77.6996 3.22995 78.2074C6.19428 78.7152 9.30124 78.6719 12.1931 79.5933C13.5013 80.0184 14.8083 80.5815 15.5585 81.6923C16.6498 83.2891 16.356 85.4268 15.5823 87.1463C14.3871 89.7597 12.2288 91.951 9.59649 93.0338C7.17182 94.0492 4.4779 94.234 1.98592 95.0418C-0.505481 95.7805 -3.07335 97.4161 -3.71579 99.9651C-4.64407 103.685 -1.08134 106.96 2.35591 108.714C5.79374 110.399 9.85513 111.814 11.4833 115.279C12.6374 117.636 12.2688 120.463 11.7644 123.013C10.6826 128.596 8.91221 133.966 6.52227 139.124" fill="#4DC591"/>
<path d="M196.554 150.732C199.453 147.901 201.731 144.381 203.112 140.584C204.424 136.718 204.562 132.507 204.562 128.434C204.493 123.878 204.217 119.322 203.733 114.834C196.692 117.044 189.72 119.667 183.369 123.395C177.018 127.122 171.081 131.955 167.353 138.375C161.002 149.351 163.142 161.984 163.142 161.984C163.142 161.984 180.883 166.057 196.554 150.732Z" fill="url(#paint1_linear)"/>
<path opacity="0.3" d="M175.912 151.629C179.502 148.523 183.023 145.209 186.267 141.757C192.48 135.13 197.727 127.675 201.248 119.114C201.317 118.907 201.04 118.769 200.902 118.976C197.037 127.744 191.238 135.406 184.68 142.103C181.573 145.278 178.328 148.247 174.946 151.146C171.425 154.183 167.559 156.807 164.108 159.982C163.693 160.327 164.246 160.88 164.66 160.604C168.664 157.98 172.323 154.736 175.912 151.629Z" fill="url(#paint2_linear)"/>
<path d="M176.466 171.718C179.365 172.546 182.61 172.753 185.647 172.201C188.753 171.58 191.722 170.13 194.621 168.542C197.797 166.748 200.834 164.815 203.803 162.813C199.937 158.947 195.864 155.288 191.17 152.527C186.475 149.696 181.16 147.625 175.499 147.556C165.765 147.487 157.688 153.769 157.688 153.769C157.688 153.769 160.657 167.162 176.466 171.718Z" fill="url(#paint3_linear)"/>
<path opacity="0.3" d="M169.08 158.394C172.462 159.637 175.845 160.673 179.365 161.57C185.993 163.158 192.965 163.848 200.075 162.951C200.214 162.951 200.214 162.675 200.075 162.675C192.689 163.434 185.509 162.536 178.675 160.742C175.431 159.913 172.324 158.878 169.218 157.704C165.973 156.462 162.867 154.943 159.553 153.838C159.208 153.7 158.932 154.252 159.277 154.46C162.314 155.978 165.766 157.152 169.08 158.394Z" fill="url(#paint4_linear)"/>
<path d="M69.4825 74.9702C72.451 72.6921 75.0052 69.7237 76.7311 66.272C78.4569 62.7513 79.1472 58.7474 79.6995 54.7435C80.2517 50.3253 80.6659 45.9072 80.804 41.42C74.1768 42.3865 67.6186 43.6981 61.4056 46.2523C55.1926 48.8066 49.1867 52.4654 44.9757 57.988C37.7272 67.5146 38.0033 80.0787 38.0033 80.0787C38.0033 80.0787 53.3978 87.1201 69.4825 74.9702Z" fill="#4DC591"/>
<g opacity="0.41">
<path opacity="0.41" d="M54.4141 90.7417C54.3451 91.0178 54.2761 91.2249 54.207 91.5011C54.2761 91.2249 54.3451 91.0178 54.3451 90.7417C54.3451 90.6727 54.4141 90.7417 54.4141 90.7417Z" fill="#444472"/>
<path opacity="0.41" d="M53.3789 93.8483C53.655 93.0889 53.9312 92.3295 54.2073 91.5011C54.0002 92.3295 53.7241 93.0889 53.3789 93.8483Z" fill="#444472"/>
<path opacity="0.47" d="M37.8467 128.089C43.6455 135.89 49.7204 143.828 58.5567 147.832C56.9689 142.241 55.5192 136.58 54.3456 130.85C48.2707 125.258 43.6455 118.355 39.0893 111.452C39.0202 111.383 39.1583 111.314 39.1583 111.383C43.7835 117.803 48.4778 124.085 54.0695 129.608C52.3437 120.909 51.1701 112.073 50.7559 103.168C50.6869 103.168 50.6178 103.168 50.6178 103.099C48.6159 99.3019 47.2352 95.2289 46.6829 90.9488C46.6829 90.8798 46.752 90.8798 46.752 90.9488C47.4423 95.0908 48.7539 98.9567 50.7559 102.615C50.6869 101.166 50.6869 99.647 50.6178 98.1973C50.5488 98.1283 50.4798 98.0593 50.5488 97.9212L50.6178 97.8522C50.6178 95.367 50.6178 92.8818 50.7559 90.3275C50.7559 90.2585 50.8249 90.3275 50.8249 90.3275C50.7559 92.7437 50.7559 95.2289 50.8249 97.6451C51.7914 96.6096 52.7579 95.2979 53.3792 93.9173C52.7579 95.436 51.9985 96.8167 50.8249 98.0593C51.032 105.929 51.9295 113.799 53.2411 121.531C60.3515 116.836 62.6296 108.138 66.5645 100.89C66.5645 100.821 66.6336 100.89 66.6336 100.89C62.7677 108.276 60.6967 117.32 53.5172 122.014C53.4482 122.083 53.3792 122.083 53.3101 122.083C53.7934 124.913 54.3456 127.675 54.9669 130.505C55.105 130.643 55.105 130.781 55.036 130.919C55.5882 133.335 56.1405 135.682 56.7618 138.03C63.6651 132.783 69.3949 126.294 73.3988 118.286C73.3988 118.217 73.4679 118.286 73.4679 118.286C69.7401 126.501 64.2174 133.542 56.8999 138.444C58.1425 143.345 59.5231 148.177 61.0419 153.01C68.5665 148.385 75.746 142.724 78.0241 133.404C78.0241 133.335 78.0931 133.404 78.0931 133.404C75.9531 142.862 68.7736 148.73 61.249 153.562C61.7322 155.081 62.2154 156.531 62.6987 158.049C62.9058 158.671 62.0083 159.016 61.8012 158.394C60.6967 155.081 59.7302 151.767 58.7638 148.454C49.4443 144.588 43.5074 136.442 37.7776 128.158C37.7086 128.089 37.7776 128.02 37.8467 128.089Z" fill="#444472"/>
</g>
<path d="M41.6415 49.4434L-5.2793 152.246L-3.33251 153.135L43.5882 50.332L41.6415 49.4434Z" fill="#00664F"/>
<path d="M-5.64526 155.564C-7.23303 154.874 -7.92336 152.941 -7.23303 151.353C-6.5427 149.765 -4.60976 149.075 -3.022 149.765C23.7629 161.984 55.4492 150.18 67.6682 123.395C79.8871 96.6096 68.0824 64.9233 41.2974 52.7044C39.7096 52.0141 39.0193 50.0811 39.7096 48.4934C40.4 46.9056 42.3329 46.2153 43.9207 46.9056C73.8121 60.5742 87.0665 95.9883 73.3979 125.949C59.7293 156.047 24.3152 169.233 -5.64526 155.564Z" fill="#00664F"/>
<path d="M19.1383 151.284C46.7416 151.284 69.1185 128.907 69.1185 101.304C69.1185 73.7006 46.7416 51.3238 19.1383 51.3238C-8.46493 51.3238 -30.8418 73.7006 -30.8418 101.304C-30.8418 128.907 -8.46493 151.284 19.1383 151.284Z" fill="#B0DDC9"/>
<path d="M64.6311 122.083C62.9052 125.88 60.7652 129.331 58.28 132.507C52.3431 134.992 45.7159 135.821 39.3648 134.716C38.5364 134.578 37.708 134.371 37.0867 133.819C35.2228 132.162 36.8106 129.193 36.8106 126.708C36.8106 124.637 35.568 122.773 34.3944 121.047C31.7712 117.182 29.1479 112.418 30.7357 107.931C32.3234 103.444 37.639 101.028 39.0197 96.4716C40.2623 92.1225 37.4319 87.6353 37.3629 83.0791C37.2938 79.5584 39.0197 76.1758 41.4358 73.6906C43.921 71.2054 47.0966 69.5486 50.4102 68.375C52.136 67.7537 54.0689 67.3395 55.9328 67.3395C69.1182 81.7675 73.2602 103.237 64.6311 122.083ZM3.95073 147.97C6.50496 146.728 8.64499 144.381 9.12823 141.619C9.61146 138.582 8.09273 135.613 6.22883 133.197C4.29589 130.781 2.0178 128.71 0.430027 126.087C-0.260307 124.982 -0.743538 123.74 -0.743538 122.428C-0.674505 118.838 3.19136 116.353 3.60556 112.832C4.01976 109.726 1.53456 106.896 -1.22677 105.515C-4.05714 104.134 -7.23267 103.789 -10.2701 102.961C-13.3076 102.132 -16.3451 100.475 -17.5877 97.5761C-19.1064 93.9173 -17.1735 89.5682 -19.2445 86.1166C-20.5561 83.9075 -24.0078 82.4578 -26.9762 81.9746C-37.4002 106.758 -26.2859 135.544 -1.64097 146.797C-0.191273 147.418 1.1894 148.039 2.6391 148.523C3.12233 148.385 3.53653 148.178 3.95073 147.97ZM-9.92497 60.6433C-9.78691 61.1955 -9.57981 61.7478 -9.30367 62.231C-6.88751 67.3395 -1.71001 71.2054 -0.95064 76.7971C-0.74354 78.3158 -0.812574 80.0416 0.153893 81.2152C0.637127 81.8365 1.3965 82.1817 2.15586 82.5268C8.4379 85.1501 16.3077 83.2862 20.6568 78.0397C24.8678 72.9312 25.6272 65.8208 28.9408 60.091C29.9073 58.4342 31.0808 56.8464 31.0808 54.9135C31.0808 54.0851 30.8047 53.3257 30.3905 52.6354C16.1696 49.3218 1.53456 52.4283 -9.92497 60.6433Z" fill="#2EA889"/>
<path d="M24.0391 159.775H14.2363V183.108H24.0391V159.775Z" fill="#00664F"/>
<path d="M57.8661 191.461H-19.5893C-22.1435 191.461 -24.1455 189.39 -24.1455 186.905C-24.1455 184.351 -22.0745 182.349 -19.5893 182.349H57.7971C60.3513 182.349 62.3533 184.42 62.3533 186.905C62.4223 189.39 60.3513 191.461 57.8661 191.461Z" fill="#00664F"/>
<path d="M164.038 142.172C168.94 142.172 172.944 138.168 172.944 133.266C172.944 128.365 168.94 124.361 164.038 124.361H59.7979C63.2495 130.298 63.2495 136.235 59.7979 142.172H164.038Z" fill="#EDEDED"/>
<path d="M164.039 142.172C169.078 142.172 173.151 137.961 172.944 132.852C172.737 128.089 168.595 124.43 163.832 124.43H58.4178C57.6584 124.43 57.0371 123.809 57.0371 123.049C57.0371 122.29 57.6584 121.669 58.4178 121.669H164.039C170.459 121.669 175.636 126.846 175.636 133.266C175.636 139.686 170.459 144.864 164.039 144.864H58.4178C57.6584 144.864 57.0371 144.243 57.0371 143.483C57.0371 142.724 57.6584 142.103 58.4178 142.103H164.039V142.172Z" fill="#FFC278"/>
<path d="M169.216 126.087L160.794 126.156L144.985 126.294L113.299 126.363L81.6128 126.294L65.8042 126.225L60.6957 126.156C60.6266 126.087 60.6267 126.018 60.5576 125.949L65.7351 125.88L81.5438 125.811L113.23 125.742L144.916 125.811L160.725 125.88L168.871 125.949C169.078 125.949 169.147 126.018 169.216 126.087ZM171.287 128.158C171.287 128.089 171.218 128.089 171.218 128.02L160.863 127.882L145.054 127.813L113.368 127.744L81.6818 127.813L65.8732 127.882L61.5241 127.951C61.5241 128.02 61.5931 128.089 61.5931 128.227L65.8732 128.296L81.6818 128.365L113.368 128.434L144.985 128.365L160.794 128.296L171.287 128.158ZM172.392 130.229C172.392 130.229 172.392 130.16 172.323 130.16L160.794 130.022L144.985 129.953L113.299 129.884L81.6128 129.953L65.8042 130.022L62.0763 130.091C62.0763 130.16 62.0764 130.298 62.1454 130.367L65.8732 130.436L81.6818 130.505L113.368 130.574L144.985 130.436L160.794 130.367L172.392 130.229ZM60.5576 140.722L65.7351 140.791L81.5438 140.86L113.23 140.929L144.916 140.86L160.725 140.791L168.871 140.722C168.94 140.653 169.009 140.584 169.078 140.584L160.656 140.515L144.847 140.446L113.161 140.377L81.4747 140.446L65.6661 140.515L60.5576 140.584C60.6267 140.515 60.6267 140.653 60.5576 140.722ZM171.218 138.582C171.218 138.513 171.287 138.513 171.287 138.444L160.863 138.306L145.054 138.237L113.368 138.168L81.6818 138.237L65.8732 138.306L61.5931 138.375C61.5931 138.444 61.5241 138.513 61.5241 138.651L65.8732 138.72L81.6818 138.789L113.368 138.858L145.054 138.789L160.863 138.72L171.218 138.582ZM172.323 136.442C172.323 136.442 172.323 136.373 172.392 136.373L160.863 136.235L145.054 136.166L113.368 136.097L81.6818 136.166L65.8732 136.235L62.1454 136.304C62.1454 136.373 62.1454 136.511 62.0763 136.58L65.8042 136.649L81.6128 136.718L113.299 136.787L144.985 136.718L160.794 136.649L172.323 136.442ZM172.875 134.371V134.302L160.794 134.164L144.985 134.095L113.299 134.026L81.6128 134.095L65.8042 134.164L62.3525 134.233C62.3525 134.302 62.3525 134.44 62.3525 134.509L65.8042 134.578L81.6128 134.647L113.299 134.716L144.985 134.578L160.794 134.509L172.875 134.371ZM172.875 132.3V132.231L160.863 132.093L145.054 132.024L113.368 131.955L81.6818 132.024L65.8732 132.093L62.4215 132.162C62.4215 132.231 62.4215 132.369 62.4215 132.438L65.8732 132.507L81.6818 132.576L113.368 132.645L144.985 132.507L160.794 132.438L172.875 132.3Z" fill="#E1E3EF"/>
<path d="M71.0508 141.412L75.607 138.789L80.1632 141.412V129.953H71.0508V141.412Z" fill="#FFC278"/>
<path d="M68.7041 165.436C63.8028 165.436 59.7988 161.432 59.7988 156.531C59.7988 151.629 63.8028 147.625 68.7041 147.625H172.944C169.493 153.562 169.493 159.499 172.944 165.436H68.7041Z" fill="#EDEDED"/>
<path d="M68.7037 165.436C63.6643 165.436 59.5913 161.225 59.7984 156.116C60.0055 151.353 64.1475 147.694 68.9108 147.694H174.256C175.015 147.694 175.636 147.073 175.636 146.314C175.636 145.554 175.015 144.933 174.256 144.933H68.6347C62.2146 144.933 57.0371 150.11 57.0371 156.531C57.0371 162.951 62.2146 168.128 68.6347 168.128H174.256C175.015 168.128 175.636 167.507 175.636 166.747C175.636 165.988 175.015 165.367 174.256 165.367H68.7037V165.436Z" fill="#FF7648"/>
<path d="M63.7337 149.144L71.8797 149.075L87.6883 149.006L119.375 148.937L151.061 149.006L166.87 149.075L172.047 149.144C171.978 149.213 171.978 149.282 171.909 149.351L166.801 149.42L150.992 149.489L119.306 149.558L87.6193 149.489L71.8106 149.42L63.3886 149.351C63.5957 149.282 63.6647 149.213 63.7337 149.144ZM71.8797 151.491L87.6883 151.56L119.375 151.629L151.061 151.56L166.87 151.491L171.15 151.422C171.15 151.353 171.219 151.284 171.219 151.146L166.87 151.077L151.061 151.008L119.375 150.939L87.6883 151.008L71.8797 151.077L61.5247 151.215C61.5247 151.284 61.4556 151.284 61.4556 151.353L71.8797 151.491ZM71.8797 153.562L87.6883 153.631L119.375 153.7L151.061 153.631L166.87 153.562L170.597 153.493C170.597 153.424 170.597 153.286 170.666 153.217L166.939 153.148L151.13 153.079L119.444 153.01L87.7573 153.079L71.9487 153.148L60.4201 153.286C60.4201 153.286 60.4201 153.355 60.3511 153.355L71.8797 153.562ZM172.047 163.71L166.939 163.641L151.13 163.572L119.444 163.503L87.7573 163.572L71.9487 163.641L63.5266 163.71C63.5957 163.779 63.6647 163.848 63.7337 163.848L71.8797 163.917L87.6883 163.986L119.375 164.055L151.061 163.986L166.87 163.917L172.047 163.848C172.116 163.917 172.116 163.779 172.047 163.71ZM71.8797 161.915L87.6883 161.984L119.375 162.053L151.061 161.984L166.87 161.915L171.219 161.846C171.219 161.777 171.15 161.708 171.15 161.57L166.87 161.501L151.061 161.432L119.375 161.363L87.6883 161.432L71.8797 161.501L61.4556 161.639C61.4556 161.708 61.5247 161.708 61.5247 161.777L71.8797 161.915ZM71.8797 159.844L87.6883 159.913L119.375 159.982L151.061 159.913L166.87 159.844L170.597 159.775C170.597 159.706 170.597 159.568 170.528 159.499L166.801 159.43L150.992 159.361L119.306 159.292L87.6193 159.361L71.8106 159.43L60.2821 159.568C60.2821 159.568 60.2821 159.637 60.3511 159.637L71.8797 159.844ZM71.8797 157.773L87.6883 157.842L119.375 157.911L151.061 157.842L166.87 157.773L170.321 157.704C170.321 157.635 170.321 157.497 170.321 157.428L166.87 157.359L151.061 157.29L119.375 157.221L87.6883 157.29L71.8797 157.359L59.7988 157.497V157.566L71.8797 157.773ZM71.8797 155.702L87.6883 155.771L119.375 155.84L151.061 155.771L166.87 155.702L170.321 155.633C170.321 155.564 170.321 155.426 170.321 155.357L166.87 155.288L151.061 155.219L119.375 155.15L87.6883 155.219L71.8797 155.288L59.8679 155.426V155.495L71.8797 155.702Z" fill="#E1E3EF"/>
<path d="M164.522 160.603L159.966 157.98L155.479 160.603V149.075H164.522V160.603Z" fill="#FE9946"/>
<path d="M164.039 188.7C168.941 188.7 172.944 184.696 172.944 179.795C172.944 174.893 168.941 170.89 164.039 170.89H59.7988C63.2505 176.826 63.2505 182.763 59.7988 188.7H164.039Z" fill="#EDEDED"/>
<path d="M164.039 188.7C169.079 188.7 173.152 184.489 172.944 179.381C172.737 174.617 168.595 170.959 163.832 170.959H58.4871C57.7277 170.959 57.1064 170.337 57.1064 169.578C57.1064 168.819 57.7277 168.197 58.4871 168.197H164.108C170.528 168.197 175.706 173.375 175.706 179.795C175.706 186.215 170.528 191.392 164.108 191.392H58.4871C57.7277 191.392 57.1064 190.771 57.1064 190.012C57.1064 189.252 57.7277 188.631 58.4871 188.631H164.039V188.7Z" fill="#8F98FF"/>
<path d="M169.216 172.615L160.794 172.684L144.985 172.753L113.299 172.822L81.6128 172.753L65.8042 172.684L60.6957 172.615C60.6266 172.546 60.6267 172.477 60.5576 172.408L65.7351 172.339L81.5438 172.27L113.23 172.201L144.916 172.27L160.725 172.339L168.871 172.408C169.078 172.477 169.147 172.546 169.216 172.615ZM171.287 174.686C171.287 174.617 171.218 174.617 171.218 174.548L160.863 174.41L145.054 174.341L113.368 174.272L81.6818 174.341L65.8732 174.41L61.5241 174.479C61.5241 174.548 61.5931 174.617 61.5931 174.755L65.8732 174.824L81.6818 174.893L113.368 174.962L145.054 174.893L160.863 174.824L171.287 174.686ZM172.392 176.757C172.392 176.757 172.392 176.688 172.323 176.688L160.794 176.55L144.985 176.481L113.299 176.412L81.6128 176.481L65.8042 176.55L62.0763 176.619C62.0763 176.688 62.0764 176.826 62.1454 176.895L65.8732 176.964L81.6818 177.033L113.368 177.102L145.054 177.033L160.863 176.964L172.392 176.757ZM171.218 185.11C171.218 185.041 171.287 185.041 171.287 184.972L160.863 184.834L145.054 184.765L113.368 184.696L81.6818 184.765L65.8732 184.834L61.5931 184.903C61.5931 184.972 61.5241 185.041 61.5241 185.179L65.8732 185.248L81.6818 185.317L113.368 185.386L145.054 185.317L160.863 185.248L171.218 185.11ZM172.323 182.97C172.323 182.97 172.323 182.901 172.392 182.901L160.863 182.763L145.054 182.694L113.368 182.625L81.6818 182.694L65.8732 182.763L62.1454 182.832C62.1454 182.901 62.1454 183.039 62.0763 183.108L65.8042 183.177L81.6128 183.246L113.299 183.315L144.985 183.246L160.794 183.177L172.323 182.97ZM172.875 180.899V180.83L160.794 180.692L144.985 180.623L113.299 180.554L81.6128 180.623L65.8042 180.692L62.3525 180.761C62.3525 180.83 62.3525 180.968 62.3525 181.037L65.8042 181.106L81.6128 181.175L113.299 181.244L144.985 181.175L160.794 181.106L172.875 180.899ZM172.875 178.828V178.759L160.863 178.621L145.054 178.552L113.368 178.483L81.6818 178.552L65.8732 178.621L62.4215 178.69C62.4215 178.759 62.4215 178.897 62.4215 178.966L65.8732 179.035L81.6818 179.104L113.368 179.173L145.054 179.104L160.863 179.035L172.875 178.828Z" fill="#E1E3EF"/>
<path d="M96.1104 187.941L100.667 185.317L105.154 187.941V176.412H96.1104V187.941Z" fill="#8F98FF"/>
<defs>
<linearGradient id="paint0_linear" x1="195.5" y1="79.7719" x2="72.8453" y2="187.549" gradientUnits="userSpaceOnUse">
<stop stop-color="#6CD3FF"/>
<stop offset="1" stop-color="#8582C9"/>
</linearGradient>
<linearGradient id="paint1_linear" x1="203.253" y1="124.533" x2="156.833" y2="165.544" gradientUnits="userSpaceOnUse">
<stop offset="0.00060096" stop-color="#B2DB90"/>
<stop offset="1" stop-color="#2BBA90"/>
</linearGradient>
<linearGradient id="paint2_linear" x1="178.047" y1="128.394" x2="187.473" y2="151.186" gradientUnits="userSpaceOnUse">
<stop stop-color="#2B6565"/>
<stop offset="1" stop-color="#2BBA90"/>
</linearGradient>
<linearGradient id="paint3_linear" x1="202.423" y1="170.331" x2="150.139" y2="147.141" gradientUnits="userSpaceOnUse">
<stop offset="0.00252404" stop-color="#56D6D5"/>
<stop offset="1" stop-color="#00674B"/>
</linearGradient>
<linearGradient id="paint4_linear" x1="171.784" y1="145.904" x2="187.377" y2="170.828" gradientUnits="userSpaceOnUse">
<stop stop-color="#2B6565"/>
<stop offset="1" stop-color="#2BBA90"/>
</linearGradient>
</defs>
</svg>
