<svg width="103" height="73" viewBox="0 0 103 73" fill="none" xmlns="http://www.w3.org/2000/svg">
<path fill-rule="evenodd" clip-rule="evenodd" d="M23.6537 164.64C6.30456 169.74 -12.3888 159.631 -26.8142 148.707C-41.0644 137.916 -49.1307 121.595 -55.349 104.814C-61.8209 87.3483 -70.663 67.8511 -63.0788 50.8408C-55.597 34.06 -33.9897 30.6827 -18.1598 21.4037C-4.3114 13.2862 7.6112 0.10318 23.6537 0.000869751C39.7329 -0.101685 55.1602 8.83394 65.8556 20.8679C75.4489 31.6618 72.4217 48.0741 78.1649 61.334C84.8892 76.8594 107.676 88.656 102.142 104.647C96.5708 120.745 69.9108 113.917 56.3923 124.25C42.2853 135.032 40.6779 159.636 23.6537 164.64Z" fill="#F8F8F8"/>
</svg>
