<svg width="21" height="20" viewBox="0 0 21 20" fill="none" xmlns="http://www.w3.org/2000/svg">
<path d="M21 2.61559C21 1.9219 20.7234 1.25661 20.2312 0.76609C19.7389 0.275571 19.0712 0 18.375 0L2.625 0C1.92881 0 1.26113 0.275571 0.768845 0.76609C0.276562 1.25661 0 1.9219 0 2.61559V13.078C0 13.7717 0.276562 14.437 0.768845 14.9275C1.26113 15.418 1.92881 15.6936 2.625 15.6936H15.2066C15.5547 15.6936 15.8885 15.8315 16.1346 16.0767L19.8791 19.8079C19.9708 19.8995 20.0877 19.9619 20.2151 19.9873C20.3424 20.0127 20.4744 19.9998 20.5944 19.9504C20.7144 19.901 20.817 19.8172 20.8892 19.7096C20.9614 19.6021 21 19.4756 21 19.3462V2.61559ZM16.4062 3.92339C16.5803 3.92339 16.7472 3.99228 16.8703 4.11491C16.9934 4.23754 17.0625 4.40386 17.0625 4.57729C17.0625 4.75071 16.9934 4.91704 16.8703 5.03967C16.7472 5.16229 16.5803 5.23119 16.4062 5.23119H4.59375C4.4197 5.23119 4.25278 5.16229 4.12971 5.03967C4.00664 4.91704 3.9375 4.75071 3.9375 4.57729C3.9375 4.40386 4.00664 4.23754 4.12971 4.11491C4.25278 3.99228 4.4197 3.92339 4.59375 3.92339H16.4062ZM16.4062 7.19288C16.5803 7.19288 16.7472 7.26178 16.8703 7.38441C16.9934 7.50704 17.0625 7.67336 17.0625 7.84678C17.0625 8.02021 16.9934 8.18653 16.8703 8.30916C16.7472 8.43179 16.5803 8.50068 16.4062 8.50068H4.59375C4.4197 8.50068 4.25278 8.43179 4.12971 8.30916C4.00664 8.18653 3.9375 8.02021 3.9375 7.84678C3.9375 7.67336 4.00664 7.50704 4.12971 7.38441C4.25278 7.26178 4.4197 7.19288 4.59375 7.19288H16.4062ZM16.4062 10.4624C16.5803 10.4624 16.7472 10.5313 16.8703 10.6539C16.9934 10.7765 17.0625 10.9428 17.0625 11.1163C17.0625 11.2897 16.9934 11.456 16.8703 11.5787C16.7472 11.7013 16.5803 11.7702 16.4062 11.7702H9.84375C9.6697 11.7702 9.50278 11.7013 9.37971 11.5787C9.25664 11.456 9.1875 11.2897 9.1875 11.1163C9.1875 10.9428 9.25664 10.7765 9.37971 10.6539C9.50278 10.5313 9.6697 10.4624 9.84375 10.4624H16.4062Z" fill="white"/>
</svg>
