<svg width="20" height="20" viewBox="0 0 20 20" fill="none" xmlns="http://www.w3.org/2000/svg">
<path fill-rule="evenodd" clip-rule="evenodd" d="M1.66699 10.0003C1.66699 5.39866 5.39783 1.66699 10.0003 1.66699C14.6028 1.66699 18.3337 5.39866 18.3337 10.0003C18.3337 14.602 14.6028 18.3337 10.0003 18.3337C5.39783 18.3337 1.66699 14.602 1.66699 10.0003ZM10.0007 16.6673C6.32482 16.6673 3.33398 13.6765 3.33398 10.0007C3.33398 6.32482 6.32482 3.33398 10.0007 3.33398C13.6765 3.33398 16.6673 6.32482 16.6673 10.0007C16.6673 13.6765 13.6765 16.6673 10.0007 16.6673ZM12.2538 6.99593L9.10051 11.1368L7.73967 9.39843C7.45634 9.03509 6.93134 8.97176 6.56967 9.25593C6.20717 9.53926 6.14301 10.0634 6.42717 10.4251L8.45301 13.0143C8.61134 13.2159 8.85301 13.3334 9.10967 13.3334H9.11551C9.37301 13.3326 9.61634 13.2109 9.77217 13.0051L13.5797 8.00509C13.8588 7.63843 13.788 7.11676 13.4213 6.83759C13.0538 6.55843 12.5322 6.63009 12.2538 6.99593Z" fill="white"/>
<mask id="mask0" mask-type="alpha" maskUnits="userSpaceOnUse" x="1" y="1" width="18" height="18">
<path fill-rule="evenodd" clip-rule="evenodd" d="M1.66699 10.0003C1.66699 5.39866 5.39783 1.66699 10.0003 1.66699C14.6028 1.66699 18.3337 5.39866 18.3337 10.0003C18.3337 14.602 14.6028 18.3337 10.0003 18.3337C5.39783 18.3337 1.66699 14.602 1.66699 10.0003ZM10.0007 16.6673C6.32482 16.6673 3.33398 13.6765 3.33398 10.0007C3.33398 6.32482 6.32482 3.33398 10.0007 3.33398C13.6765 3.33398 16.6673 6.32482 16.6673 10.0007C16.6673 13.6765 13.6765 16.6673 10.0007 16.6673ZM12.2538 6.99593L9.10051 11.1368L7.73967 9.39843C7.45634 9.03509 6.93134 8.97176 6.56967 9.25593C6.20717 9.53926 6.14301 10.0634 6.42717 10.4251L8.45301 13.0143C8.61134 13.2159 8.85301 13.3334 9.10967 13.3334H9.11551C9.37301 13.3326 9.61634 13.2109 9.77217 13.0051L13.5797 8.00509C13.8588 7.63843 13.788 7.11676 13.4213 6.83759C13.0538 6.55843 12.5322 6.63009 12.2538 6.99593Z" fill="white"/>
</mask>
<g mask="url(#mask0)">
</g>
</svg>
