<svg width="10" height="10" viewBox="0 0 10 10" fill="none" xmlns="http://www.w3.org/2000/svg">
<path fill-rule="evenodd" clip-rule="evenodd" d="M0.416504 4.99996C0.416504 2.45829 2.45817 0.416626 4.99984 0.416626C7.5415 0.416626 9.58317 2.45829 9.58317 4.99996C9.58317 7.54163 7.5415 9.58329 4.99984 9.58329C2.45817 9.58329 0.416504 7.54163 0.416504 4.99996ZM1.24984 4.99996C1.24984 7.08329 2.9165 8.74996 4.99984 8.74996C7.08317 8.74996 8.74984 7.08329 8.74984 4.99996C8.74984 2.91663 7.08317 1.24996 4.99984 1.24996C2.9165 1.24996 1.24984 2.91663 1.24984 4.99996Z" fill="white"/>
<mask id="mask0" mask-type="alpha" maskUnits="userSpaceOnUse" x="0" y="0" width="10" height="10">
<path fill-rule="evenodd" clip-rule="evenodd" d="M0.416504 4.99996C0.416504 2.45829 2.45817 0.416626 4.99984 0.416626C7.5415 0.416626 9.58317 2.45829 9.58317 4.99996C9.58317 7.54163 7.5415 9.58329 4.99984 9.58329C2.45817 9.58329 0.416504 7.54163 0.416504 4.99996ZM1.24984 4.99996C1.24984 7.08329 2.9165 8.74996 4.99984 8.74996C7.08317 8.74996 8.74984 7.08329 8.74984 4.99996C8.74984 2.91663 7.08317 1.24996 4.99984 1.24996C2.9165 1.24996 1.24984 2.91663 1.24984 4.99996Z" fill="white"/>
</mask>
<g mask="url(#mask0)">
<rect width="10" height="10" fill="white"/>
</g>
</svg>
