<svg width="14" height="14" viewBox="0 0 14 14" fill="none" xmlns="http://www.w3.org/2000/svg">
<path d="M5.94239 8.05739C6.24989 8.34989 6.24989 8.82989 5.94239 9.12239C5.64989 9.41489 5.16989 9.41489 4.87739 9.12239C4.17492 8.41887 3.78037 7.46532 3.78037 6.47114C3.78037 5.47696 4.17492 4.52341 4.87739 3.81989L7.53239 1.16489C8.23591 0.462424 9.18946 0.0678711 10.1836 0.0678711C11.1778 0.0678711 12.1314 0.462424 12.8349 1.16489C13.5374 1.86841 13.9319 2.82196 13.9319 3.81614C13.9319 4.81032 13.5374 5.76387 12.8349 6.46739L11.7174 7.58489C11.7249 6.96989 11.6274 6.35489 11.4174 5.76989L11.7699 5.40989C11.9801 5.20191 12.1471 4.95429 12.261 4.68136C12.3749 4.40844 12.4335 4.11563 12.4335 3.81989C12.4335 3.52415 12.3749 3.23134 12.261 2.95842C12.1471 2.68549 11.9801 2.43787 11.7699 2.22989C11.5619 2.01964 11.3143 1.85272 11.0414 1.7388C10.7684 1.62489 10.4756 1.56623 10.1799 1.56623C9.88415 1.56623 9.59134 1.62489 9.31842 1.7388C9.04549 1.85272 8.79787 2.01964 8.58989 2.22989L5.94239 4.87739C5.73214 5.08537 5.56522 5.33299 5.4513 5.60592C5.33739 5.87884 5.27873 6.17165 5.27873 6.46739C5.27873 6.76313 5.33739 7.05594 5.4513 7.32886C5.56522 7.60179 5.73214 7.8494 5.94239 8.05739ZM8.05739 4.87739C8.34989 4.58489 8.82989 4.58489 9.12239 4.87739C9.82485 5.58091 10.2194 6.53446 10.2194 7.52864C10.2194 8.52282 9.82485 9.47637 9.12239 10.1799L6.46739 12.8349C5.76387 13.5374 4.81032 13.9319 3.81614 13.9319C2.82196 13.9319 1.86841 13.5374 1.16489 12.8349C0.462424 12.1314 0.0678711 11.1778 0.0678711 10.1836C0.0678711 9.18946 0.462424 8.23591 1.16489 7.53239L2.28239 6.41489C2.27489 7.02989 2.37239 7.64489 2.58239 8.23739L2.22989 8.58989C2.01964 8.79787 1.85272 9.04549 1.7388 9.31842C1.62489 9.59134 1.56623 9.88415 1.56623 10.1799C1.56623 10.4756 1.62489 10.7684 1.7388 11.0414C1.85272 11.3143 2.01964 11.5619 2.22989 11.7699C2.43787 11.9801 2.68549 12.1471 2.95842 12.261C3.23134 12.3749 3.52415 12.4335 3.81989 12.4335C4.11563 12.4335 4.40844 12.3749 4.68136 12.261C4.95429 12.1471 5.20191 11.9801 5.40989 11.7699L8.05739 9.12239C8.26764 8.9144 8.43456 8.66679 8.54848 8.39386C8.66239 8.12094 8.72105 7.82813 8.72105 7.53239C8.72105 7.23665 8.66239 6.94384 8.54848 6.67092C8.43456 6.39799 8.26764 6.15037 8.05739 5.94239C7.98455 5.87413 7.92649 5.79166 7.88679 5.70007C7.8471 5.60848 7.82662 5.50971 7.82662 5.40989C7.82662 5.31007 7.8471 5.2113 7.88679 5.11971C7.92649 5.02812 7.98455 4.94565 8.05739 4.87739Z" fill="white"/>
</svg>
