<svg width="48" height="48" viewBox="0 0 48 48" fill="none" xmlns="http://www.w3.org/2000/svg">
<path d="M16 36C17.1 36 18 35.1 18 34V14C18 12.9 17.1 12 16 12C14.9 12 14 12.9 14 14V34C14 35.1 14.9 36 16 36ZM24 44C25.1 44 26 43.1 26 42V6C26 4.9 25.1 4 24 4C22.9 4 22 4.9 22 6V42C22 43.1 22.9 44 24 44ZM8 28C9.1 28 10 27.1 10 26V22C10 20.9 9.1 20 8 20C6.9 20 6 20.9 6 22V26C6 27.1 6.9 28 8 28ZM32 36C33.1 36 34 35.1 34 34V14C34 12.9 33.1 12 32 12C30.9 12 30 12.9 30 14V34C30 35.1 30.9 36 32 36ZM38 22V26C38 27.1 38.9 28 40 28C41.1 28 42 27.1 42 26V22C42 20.9 41.1 20 40 20C38.9 20 38 20.9 38 22Z" fill="#1461F5"/>
</svg>
