<svg width="18" height="18" viewBox="0 0 18 18" fill="none" xmlns="http://www.w3.org/2000/svg">
<path d="M9 4.87499C11.07 4.87499 12.75 6.55499 12.75 8.62499C12.75 9.00749 12.675 9.37499 12.57 9.71999L14.865 12.015C15.9075 11.0925 16.7325 9.93749 17.25 8.61749C15.9525 5.33249 12.75 2.99999 9 2.99999C8.0475 2.99999 7.1325 3.14999 6.27 3.42749L7.8975 5.05499C8.25 4.94999 8.6175 4.87499 9 4.87499ZM2.0325 2.36999C1.74 2.66249 1.74 3.13499 2.0325 3.42749L3.51 4.90499C2.295 5.87249 1.3275 7.14749 0.75 8.62499C2.0475 11.9175 5.25 14.25 9 14.25C10.14 14.25 11.2275 14.025 12.2325 13.635L14.2725 15.675C14.565 15.9675 15.0375 15.9675 15.33 15.675C15.6225 15.3825 15.6225 14.91 15.33 14.6175L3.0975 2.36999C2.805 2.07749 2.325 2.07749 2.0325 2.36999ZM9 12.375C6.93 12.375 5.25 10.695 5.25 8.62499C5.25 8.04749 5.385 7.49999 5.6175 7.01999L6.795 8.19749C6.7725 8.33249 6.75 8.47499 6.75 8.62499C6.75 9.86999 7.755 10.875 9 10.875C9.15 10.875 9.285 10.8525 9.4275 10.8225L10.605 12C10.1175 12.24 9.5775 12.375 9 12.375ZM11.2275 8.37749C11.115 7.32749 10.29 6.50999 9.2475 6.39749L11.2275 8.37749Z" fill="#4F5665"/>
</svg>
