<svg width="32" height="32" viewBox="0 0 32 32" fill="none" xmlns="http://www.w3.org/2000/svg">
<circle cx="16" cy="16" r="16" fill="white"/>
<path d="M22.6942 12.315C22.705 12.4608 22.705 12.6058 22.705 12.7508C22.705 17.1883 19.3275 22.3017 13.155 22.3017C11.2533 22.3017 9.48667 21.7508 8 20.7942C8.27 20.825 8.53 20.8358 8.81083 20.8358C10.3217 20.8395 11.7897 20.3343 12.9783 19.4017C12.2779 19.389 11.5988 19.1579 11.036 18.7406C10.4733 18.3233 10.0548 17.7407 9.83917 17.0742C10.0467 17.105 10.255 17.1258 10.4733 17.1258C10.7742 17.1258 11.0767 17.0842 11.3575 17.0117C10.5973 16.8582 9.91373 16.4461 9.42302 15.8456C8.9323 15.245 8.66474 14.493 8.66583 13.7175V13.6758C9.11333 13.925 9.6325 14.0808 10.1825 14.1017C9.72174 13.7955 9.34393 13.38 9.08278 12.8923C8.82163 12.4046 8.68526 11.8599 8.68583 11.3067C8.68583 10.6833 8.85167 10.1117 9.1425 9.61333C9.98595 10.6509 11.0379 11.4996 12.2303 12.1047C13.4226 12.7098 14.7288 13.0577 16.0642 13.1258C16.0125 12.8758 15.9808 12.6167 15.9808 12.3567C15.9806 11.9158 16.0673 11.4792 16.2359 11.0719C16.4045 10.6645 16.6518 10.2944 16.9635 9.98266C17.2752 9.67092 17.6454 9.42368 18.0527 9.25507C18.46 9.08645 18.8966 8.99978 19.3375 9C20.3042 9 21.1767 9.405 21.79 10.06C22.5415 9.91468 23.2621 9.64035 23.92 9.24917C23.6695 10.0248 23.1448 10.6826 22.4442 11.0992C23.1107 11.0231 23.762 10.8479 24.3767 10.5792C23.9176 11.2484 23.3488 11.8353 22.6942 12.315V12.315Z" fill="#1461F5"/>
</svg>
