<svg width="32" height="32" viewBox="0 0 32 32" fill="none" xmlns="http://www.w3.org/2000/svg">
<circle cx="16" cy="16" r="16" fill="white"/>
<path d="M15.9991 12.1475C14.9771 12.1475 13.997 12.5534 13.2744 13.2761C12.5517 13.9987 12.1458 14.9788 12.1458 16.0008C12.1458 17.0228 12.5517 18.0029 13.2744 18.7255C13.997 19.4482 14.9771 19.8541 15.9991 19.8541C17.0211 19.8541 18.0012 19.4482 18.7238 18.7255C19.4464 18.0029 19.8524 17.0228 19.8524 16.0008C19.8524 14.9788 19.4464 13.9987 18.7238 13.2761C18.0012 12.5534 17.0211 12.1475 15.9991 12.1475V12.1475ZM15.9991 18.5033C15.3352 18.5033 14.6984 18.2396 14.229 17.7701C13.7595 17.3006 13.4958 16.6639 13.4958 16C13.4958 15.336 13.7595 14.6993 14.229 14.2298C14.6984 13.7604 15.3352 13.4966 15.9991 13.4966C16.663 13.4966 17.2997 13.7604 17.7692 14.2298C18.2387 14.6993 18.5024 15.336 18.5024 16C18.5024 16.6639 18.2387 17.3006 17.7692 17.7701C17.2997 18.2396 16.663 18.5033 15.9991 18.5033V18.5033Z" fill="#1461F5"/>
<path d="M20.005 12.9042C20.5012 12.9042 20.9034 12.502 20.9034 12.0059C20.9034 11.5097 20.5012 11.1075 20.005 11.1075C19.5089 11.1075 19.1067 11.5097 19.1067 12.0059C19.1067 12.502 19.5089 12.9042 20.005 12.9042Z" fill="#1461F5"/>
<path d="M23.1109 11.0925C22.918 10.5943 22.6232 10.1419 22.2453 9.7642C21.8675 9.38651 21.415 9.09188 20.9167 8.89915C20.3337 8.68028 19.7177 8.56193 19.095 8.54915C18.2925 8.51415 18.0384 8.50415 16.0034 8.50415C13.9684 8.50415 13.7075 8.50415 12.9117 8.54915C12.2895 8.56128 11.674 8.67965 11.0917 8.89915C10.5933 9.09165 10.1407 9.38621 9.76282 9.76392C9.38496 10.1416 9.09023 10.5942 8.89754 11.0925C8.67863 11.6755 8.56055 12.2915 8.54838 12.9142C8.51254 13.7158 8.50171 13.97 8.50171 16.0058C8.50171 18.0408 8.50171 18.3 8.54838 19.0975C8.56088 19.7208 8.67838 20.3358 8.89754 20.92C9.09077 21.4181 9.38579 21.8705 9.76374 22.2481C10.1417 22.6258 10.5943 22.9205 11.0925 23.1133C11.6737 23.341 12.2895 23.4678 12.9134 23.4883C13.7159 23.5233 13.97 23.5341 16.005 23.5341C18.04 23.5341 18.3009 23.5341 19.0967 23.4883C19.7193 23.4757 20.3352 23.3576 20.9184 23.1392C21.4165 22.946 21.8689 22.6511 22.2467 22.2733C22.6245 21.8955 22.9194 21.4431 23.1125 20.945C23.3317 20.3617 23.4492 19.7467 23.4617 19.1233C23.4975 18.3217 23.5084 18.0675 23.5084 16.0317C23.5084 13.9958 23.5084 13.7375 23.4617 12.94C23.452 12.3085 23.3333 11.6835 23.1109 11.0925V11.0925ZM22.0959 19.0358C22.0905 19.5161 22.0028 19.9918 21.8367 20.4425C21.7116 20.7665 21.52 21.0608 21.2743 21.3064C21.0286 21.5519 20.7342 21.7434 20.41 21.8683C19.9644 22.0337 19.4937 22.1214 19.0184 22.1275C18.2267 22.1641 18.0034 22.1733 15.9734 22.1733C13.9417 22.1733 13.7342 22.1733 12.9275 22.1275C12.4525 22.1217 11.982 22.034 11.5367 21.8683C11.2114 21.7441 10.9159 21.5531 10.6691 21.3074C10.4224 21.0618 10.2299 20.7672 10.1042 20.4425C9.94041 19.9967 9.8528 19.5265 9.84504 19.0516C9.80921 18.26 9.80088 18.0367 9.80088 16.0067C9.80088 13.9758 9.80088 13.7683 9.84504 12.9608C9.85043 12.4808 9.93809 12.0053 10.1042 11.555C10.3584 10.8975 10.8792 10.38 11.5367 10.1283C11.9822 9.96343 12.4526 9.87579 12.9275 9.86915C13.72 9.83332 13.9425 9.82332 15.9734 9.82332C18.0042 9.82332 18.2125 9.82332 19.0184 9.86915C19.4937 9.87487 19.9645 9.96254 20.41 10.1283C20.7341 10.2535 21.0285 10.4452 21.2742 10.6908C21.5199 10.9365 21.7115 11.2309 21.8367 11.555C22.0005 12.0008 22.0881 12.471 22.0959 12.9458C22.1317 13.7383 22.1409 13.9608 22.1409 15.9916C22.1409 18.0216 22.1409 18.24 22.105 19.0367H22.0959V19.0358Z" fill="#1461F5"/>
</svg>
