<svg width="18" height="18" viewBox="0 0 18 18" fill="none" xmlns="http://www.w3.org/2000/svg">
<path d="M10.5 6C10.5 4.3425 9.1575 3 7.5 3C5.8425 3 4.5 4.3425 4.5 6C4.5 7.6575 5.8425 9 7.5 9C9.1575 9 10.5 7.6575 10.5 6ZM1.5 13.5V14.25C1.5 14.6625 1.8375 15 2.25 15H12.75C13.1625 15 13.5 14.6625 13.5 14.25V13.5C13.5 11.505 9.5025 10.5 7.5 10.5C5.4975 10.5 1.5 11.505 1.5 13.5ZM13.5 7.5H16.5C16.9125 7.5 17.25 7.8375 17.25 8.25C17.25 8.6625 16.9125 9 16.5 9H13.5C13.0875 9 12.75 8.6625 12.75 8.25C12.75 7.8375 13.0875 7.5 13.5 7.5Z" fill="#323232"/>
</svg>
