<svg width="28" height="28" viewBox="0 0 28 28" fill="none" xmlns="http://www.w3.org/2000/svg">
<path d="M14.0003 7.33332C13.267 7.33332 12.667 7.93332 12.667 8.66666V12.6667H8.66699C7.93366 12.6667 7.33366 13.2667 7.33366 14C7.33366 14.7333 7.93366 15.3333 8.66699 15.3333H12.667V19.3333C12.667 20.0667 13.267 20.6667 14.0003 20.6667C14.7337 20.6667 15.3337 20.0667 15.3337 19.3333V15.3333H19.3337C20.067 15.3333 20.667 14.7333 20.667 14C20.667 13.2667 20.067 12.6667 19.3337 12.6667H15.3337V8.66666C15.3337 7.93332 14.7337 7.33332 14.0003 7.33332ZM14.0003 0.666656C6.65366 0.666656 0.666992 6.65332 0.666992 14C0.666992 21.3467 6.65366 27.3333 14.0003 27.3333C21.347 27.3333 27.3337 21.3467 27.3337 14C27.3337 6.65332 21.347 0.666656 14.0003 0.666656ZM14.0003 24.6667C8.12033 24.6667 3.33366 19.88 3.33366 14C3.33366 8.11999 8.12033 3.33332 14.0003 3.33332C19.8803 3.33332 24.667 8.11999 24.667 14C24.667 19.88 19.8803 24.6667 14.0003 24.6667Z" fill="white"/>
</svg>
