<svg width="12" height="18" viewBox="0 0 12 18" fill="none" xmlns="http://www.w3.org/2000/svg">
<path d="M0.75 15V16.5H4.5V18L6.75 15.75L4.5 13.5V15H0.75ZM7.5 15H11.25V16.5H7.5V15ZM5.9925 6C6.825 6 7.5 5.325 7.5 4.5C7.5 3.675 6.825 3 5.9925 3C5.16 3 4.5 3.675 4.5 4.5C4.5 5.325 5.1675 6 5.9925 6ZM9.75 0H2.25C1.425 0 0.75 0.675 0.75 1.5V12C0.75 12.825 1.425 13.5 2.25 13.5H9.75C10.575 13.5 11.25 12.825 11.25 12V1.5C11.25 0.675 10.575 0 9.75 0ZM9.75 12H2.25V10.5H9.75V12ZM9.75 9.375C9.75 8.1225 7.2525 7.5 6 7.5C4.7475 7.5 2.25 8.1225 2.25 9.375V1.5H9.75V9.375Z" fill="#4F5665"/>
</svg>
