<svg width="15" height="15" viewBox="0 0 15 15" fill="none" xmlns="http://www.w3.org/2000/svg">
<path d="M10.9166 9.6667H10.2582L10.0249 9.4417C11.0249 8.27503 11.5416 6.68337 11.2582 4.9917C10.8666 2.67503 8.93324 0.825033 6.59991 0.5417C3.07491 0.108366 0.108244 3.07503 0.541578 6.60003C0.824911 8.93337 2.67491 10.8667 4.99158 11.2584C6.68324 11.5417 8.27491 11.025 9.44158 10.025L9.66658 10.2584V10.9167L13.2082 14.4584C13.5499 14.8 14.1082 14.8 14.4499 14.4584C14.7916 14.1167 14.7916 13.5584 14.4499 13.2167L10.9166 9.6667ZM5.91658 9.6667C3.84158 9.6667 2.16658 7.9917 2.16658 5.9167C2.16658 3.8417 3.84158 2.1667 5.91658 2.1667C7.99158 2.1667 9.66658 3.8417 9.66658 5.9167C9.66658 7.9917 7.99158 9.6667 5.91658 9.6667Z" fill="#4F5665"/>
</svg>
