<svg width="16" height="16" viewBox="0 0 16 16" fill="none" xmlns="http://www.w3.org/2000/svg">
<path d="M13.5726 8.735C13.6026 8.495 13.6251 8.255 13.6251 8C13.6251 7.745 13.6026 7.505 13.5726 7.265L15.1551 6.0275C15.2976 5.915 15.3351 5.7125 15.2451 5.5475L13.7451 2.9525C13.6776 2.8325 13.5501 2.765 13.4151 2.765C13.3701 2.765 13.3251 2.7725 13.2876 2.7875L11.4201 3.5375C11.0301 3.2375 10.6101 2.99 10.1526 2.8025L9.86762 0.815C9.84512 0.635 9.68762 0.5 9.50012 0.5H6.50012C6.31262 0.5 6.15512 0.635 6.13262 0.815L5.84762 2.8025C5.39012 2.99 4.97012 3.245 4.58012 3.5375L2.71262 2.7875C2.66762 2.7725 2.62262 2.765 2.57762 2.765C2.45012 2.765 2.32262 2.8325 2.25512 2.9525L0.755124 5.5475C0.657624 5.7125 0.702624 5.915 0.845124 6.0275L2.42762 7.265C2.39762 7.505 2.37512 7.7525 2.37512 8C2.37512 8.2475 2.39762 8.495 2.42762 8.735L0.845124 9.9725C0.702624 10.085 0.665124 10.2875 0.755124 10.4525L2.25512 13.0475C2.32262 13.1675 2.45012 13.235 2.58512 13.235C2.63012 13.235 2.67512 13.2275 2.71262 13.2125L4.58012 12.4625C4.97012 12.7625 5.39012 13.01 5.84762 13.1975L6.13262 15.185C6.15512 15.365 6.31262 15.5 6.50012 15.5H9.50012C9.68762 15.5 9.84512 15.365 9.86762 15.185L10.1526 13.1975C10.6101 13.01 11.0301 12.755 11.4201 12.4625L13.2876 13.2125C13.3326 13.2275 13.3776 13.235 13.4226 13.235C13.5501 13.235 13.6776 13.1675 13.7451 13.0475L15.2451 10.4525C15.3351 10.2875 15.2976 10.085 15.1551 9.9725L13.5726 8.735ZM12.0876 7.4525C12.1176 7.685 12.1251 7.8425 12.1251 8C12.1251 8.1575 12.1101 8.3225 12.0876 8.5475L11.9826 9.395L12.6501 9.92L13.4601 10.55L12.9351 11.4575L11.9826 11.075L11.2026 10.76L10.5276 11.27C10.2051 11.51 9.89762 11.69 9.59012 11.8175L8.79512 12.14L8.67512 12.9875L8.52512 14H7.47512L7.33262 12.9875L7.21262 12.14L6.41762 11.8175C6.09512 11.6825 5.79512 11.51 5.49512 11.285L4.81262 10.76L4.01762 11.0825L3.06512 11.465L2.54012 10.5575L3.35012 9.9275L4.01762 9.4025L3.91262 8.555C3.89012 8.3225 3.87512 8.15 3.87512 8C3.87512 7.85 3.89012 7.6775 3.91262 7.4525L4.01762 6.605L3.35012 6.08L2.54012 5.45L3.06512 4.5425L4.01762 4.925L4.79762 5.24L5.47262 4.73C5.79512 4.49 6.10262 4.31 6.41012 4.1825L7.20512 3.86L7.32512 3.0125L7.47512 2H8.51762L8.66012 3.0125L8.78012 3.86L9.57512 4.1825C9.89762 4.3175 10.1976 4.49 10.4976 4.715L11.1801 5.24L11.9751 4.9175L12.9276 4.535L13.4526 5.4425L12.6501 6.08L11.9826 6.605L12.0876 7.4525ZM8.00012 5C6.34262 5 5.00012 6.3425 5.00012 8C5.00012 9.6575 6.34262 11 8.00012 11C9.65762 11 11.0001 9.6575 11.0001 8C11.0001 6.3425 9.65762 5 8.00012 5ZM8.00012 9.5C7.17512 9.5 6.50012 8.825 6.50012 8C6.50012 7.175 7.17512 6.5 8.00012 6.5C8.82512 6.5 9.50012 7.175 9.50012 8C9.50012 8.825 8.82512 9.5 8.00012 9.5Z" fill="#4F5665"/>
</svg>
