<svg width="24" height="22" viewBox="0 0 24 22" fill="none" xmlns="http://www.w3.org/2000/svg">
<path d="M21.3333 0.333344H2.66667C1.18667 0.333344 0 1.53334 0 3.00001V19C0 20.4667 1.2 21.6667 2.66667 21.6667H6.66667C7.4 21.6667 8 21.0667 8 20.3333C8 19.6 7.4 19 6.66667 19H2.66667V5.66668H21.3333V19H17.3333C16.6 19 16 19.6 16 20.3333C16 21.0667 16.6 21.6667 17.3333 21.6667H21.3333C22.8 21.6667 24 20.4667 24 19V3.00001C24 1.53334 22.8133 0.333344 21.3333 0.333344ZM11.5333 8.80001L7.81333 12.52C7.38667 12.9467 7.68 13.6667 8.28 13.6667H10.6667V20.3333C10.6667 21.0667 11.2667 21.6667 12 21.6667C12.7333 21.6667 13.3333 21.0667 13.3333 20.3333V13.6667H15.72C16.32 13.6667 16.6133 12.9467 16.1867 12.5333L12.4667 8.81334C12.2133 8.54668 11.7867 8.54668 11.5333 8.80001Z" fill="white"/>
</svg>
