<svg width="16" height="12" viewBox="0 0 16 12" fill="none" xmlns="http://www.w3.org/2000/svg">
<path d="M5.75 6C7.1975 6 8.375 4.8225 8.375 3.375C8.375 1.9275 7.1975 0.75 5.75 0.75C4.3025 0.75 3.125 1.9275 3.125 3.375C3.125 4.8225 4.3025 6 5.75 6ZM5.75 2.25C6.3725 2.25 6.875 2.7525 6.875 3.375C6.875 3.9975 6.3725 4.5 5.75 4.5C5.1275 4.5 4.625 3.9975 4.625 3.375C4.625 2.7525 5.1275 2.25 5.75 2.25ZM5.7875 9.75H2.5775C3.32 9.375 4.6025 9 5.75 9C5.8325 9 5.9225 9.0075 6.005 9.0075C6.26 8.46 6.7025 8.01 7.235 7.65C6.6875 7.5525 6.17 7.5 5.75 7.5C3.995 7.5 0.5 8.3775 0.5 10.125V11.25H5.75V10.125C5.75 9.9975 5.765 9.87 5.7875 9.75ZM11.375 7.875C9.995 7.875 7.25 8.6325 7.25 10.125V11.25H15.5V10.125C15.5 8.6325 12.755 7.875 11.375 7.875ZM12.2825 6.51C12.8525 6.1875 13.25 5.58 13.25 4.875C13.25 3.84 12.41 3 11.375 3C10.34 3 9.5 3.84 9.5 4.875C9.5 5.58 9.8975 6.1875 10.4675 6.51C10.7375 6.66 11.045 6.75 11.375 6.75C11.705 6.75 12.0125 6.66 12.2825 6.51Z" fill="white"/>
</svg>
